<?xml version="1.0" standalone="no"?>
<!DOCTYPE svg PUBLIC "-//W3C//DTD SVG 20010904//EN"
 "http://www.w3.org/TR/2001/REC-SVG-20010904/DTD/svg10.dtd">
<svg version="1.0" xmlns="http://www.w3.org/2000/svg"
 width="528.000000pt" height="528.000000pt" viewBox="0 0 528.000000 528.000000"
 preserveAspectRatio="xMidYMid meet">
<metadata>
Created by potrace 1.14, written by Peter Selinger 2001-2017
</metadata>
<g transform="translate(0.000000,528.000000) scale(0.100000,-0.100000)"
fill="#000000" stroke="none">
<path d="M2346 5029 c-132 -76 -243 -139 -247 -139 -4 0 -14 -6 -21 -13 -11
-11 -78 -50 -298 -175 -25 -14 -78 -45 -118 -69 -41 -24 -76 -43 -78 -43 -2 0
-21 -11 -42 -23 -77 -49 -285 -167 -293 -167 -5 0 -9 -4 -9 -10 0 -5 -4 -10
-9 -10 -5 0 -101 -53 -214 -119 -112 -65 -229 -132 -258 -149 -30 -16 -163
-93 -297 -171 -134 -77 -248 -141 -253 -141 -5 0 -9 -4 -9 -10 0 -5 -4 -10 -9
-10 -5 0 -50 -23 -100 -52 l-91 -52 0 -1778 c0 -1436 2 -1778 13 -1778 7 0 21
6 32 14 11 7 119 70 240 140 121 69 227 130 235 136 8 5 42 24 75 43 143 81
323 185 355 206 14 8 27 16 30 16 3 0 16 8 30 17 31 20 268 156 335 193 28 15
55 31 60 35 6 4 26 17 45 27 174 98 418 240 428 250 7 7 17 13 22 13 5 0 43
20 83 45 41 25 80 45 86 45 6 0 11 4 11 9 0 5 8 11 18 14 9 3 40 20 67 36 28
17 59 35 70 41 11 5 27 14 35 20 14 9 141 83 220 128 19 11 50 28 67 38 l33
19 0 358 0 358 -47 -27 c-27 -15 -52 -31 -58 -34 -5 -4 -30 -19 -55 -32 -25
-14 -85 -49 -135 -78 -132 -77 -204 -119 -255 -147 -25 -14 -65 -38 -90 -53
-25 -15 -110 -65 -189 -110 -79 -45 -158 -90 -175 -100 -90 -51 -354 -204
-371 -215 -11 -7 -24 -13 -30 -14 -5 -1 -17 -8 -25 -15 -8 -8 -37 -26 -65 -41
-94 -51 -280 -160 -285 -165 -3 -3 -24 -16 -47 -27 -54 -28 -87 -47 -93 -53
-3 -3 -15 -11 -28 -18 -20 -11 -22 -10 -23 15 -3 91 0 685 3 688 4 4 203 120
643 373 149 85 324 186 389 223 66 38 123 69 128 69 4 0 8 4 8 9 0 5 8 11 18
14 9 3 44 22 77 42 33 20 72 41 88 48 15 6 27 15 27 19 0 4 4 8 9 8 5 0 43 20
85 45 42 24 106 61 143 82 38 20 74 43 81 50 7 7 17 13 22 13 5 0 43 20 84 45
42 25 81 45 85 45 5 0 11 3 13 8 2 4 17 15 33 24 l30 17 3 355 c2 312 0 356
-13 356 -8 0 -15 -4 -15 -9 0 -5 -8 -11 -17 -15 -10 -3 -25 -10 -33 -16 -24
-16 -221 -130 -225 -130 -3 0 -38 -20 -78 -45 -41 -25 -79 -45 -85 -45 -6 0
-12 -4 -14 -8 -1 -4 -135 -84 -297 -177 -162 -94 -315 -182 -340 -197 -25 -15
-57 -33 -71 -40 -14 -8 -113 -65 -220 -127 -456 -265 -536 -310 -550 -316 -13
-5 -15 38 -14 345 1 345 4 380 34 380 4 0 70 36 146 81 77 44 158 92 182 105
24 14 117 67 208 119 90 52 237 137 327 189 89 51 178 103 197 114 19 11 64
36 100 57 36 21 81 46 100 57 19 11 55 32 80 46 25 14 78 45 117 69 40 24 75
43 78 43 3 0 24 12 48 27 23 15 51 31 62 37 11 6 82 47 158 91 l137 79 0 358
c0 197 -1 358 -2 357 -2 0 -111 -63 -242 -140z"/>
<path d="M2693 4100 l0 -1068 31 -16 c17 -9 38 -20 46 -26 33 -21 201 -120
205 -120 2 0 81 -45 175 -100 94 -55 175 -100 181 -100 5 0 9 -4 9 -9 0 -5 6
-11 13 -13 9 -2 217 -120 375 -213 9 -6 52 -30 95 -55 43 -25 86 -49 95 -55
10 -5 91 -52 182 -104 91 -52 176 -102 190 -111 14 -9 50 -31 80 -47 166 -91
290 -166 291 -177 1 -14 1 -652 0 -684 l-1 -22 -40 25 c-22 14 -44 25 -50 25
-5 0 -10 5 -10 10 0 6 -5 10 -11 10 -6 0 -71 36 -146 80 -74 44 -137 80 -139
80 -3 0 -122 70 -154 90 -8 6 -22 13 -30 17 -8 4 -55 31 -104 60 -49 29 -90
53 -91 53 -2 0 -80 45 -174 100 -94 55 -175 100 -181 100 -5 0 -10 5 -10 10 0
6 -4 10 -9 10 -5 0 -47 22 -93 48 -46 27 -213 124 -373 217 -159 92 -305 176
-322 187 l-33 20 0 -359 0 -358 52 -30 c52 -30 111 -64 178 -102 19 -11 59
-34 88 -52 29 -17 57 -31 62 -31 6 0 10 -4 10 -10 0 -5 6 -10 14 -10 7 0 19
-7 26 -15 6 -8 15 -14 18 -12 4 1 50 -24 102 -55 276 -162 392 -228 400 -228
6 0 10 -4 10 -10 0 -5 4 -10 9 -10 8 0 294 -162 351 -198 14 -9 28 -15 33 -14
4 1 7 -3 7 -8 0 -6 4 -10 9 -10 5 0 80 -42 168 -93 87 -51 165 -96 173 -100 8
-4 31 -17 50 -28 19 -12 168 -98 330 -191 162 -94 307 -179 322 -189 15 -11
30 -19 34 -19 4 0 35 -18 70 -40 35 -22 65 -37 66 -33 0 5 2 485 3 1068 l1
1060 -54 32 c-30 18 -56 33 -57 33 -2 0 -38 21 -81 46 -42 25 -253 147 -468
272 -644 372 -686 396 -816 472 -166 96 -187 108 -240 138 -25 14 -92 53 -150
88 l-105 62 2 338 c0 187 2 345 2 352 1 18 17 15 64 -15 23 -15 67 -40 97 -56
30 -16 62 -36 71 -43 8 -8 18 -14 22 -14 3 0 30 -14 59 -31 60 -36 684 -396
738 -426 19 -11 60 -34 90 -52 58 -34 68 -40 140 -82 25 -15 63 -37 85 -49 74
-41 510 -292 535 -308 14 -9 28 -15 33 -14 4 1 7 -3 7 -8 0 -6 7 -10 15 -10
13 0 15 46 15 353 l0 353 -112 63 c-62 35 -121 71 -130 79 -10 8 -18 11 -18 7
0 -4 -8 -2 -17 6 -10 8 -29 20 -43 28 -14 8 -63 37 -110 64 -47 27 -105 61
-130 75 -25 13 -49 28 -55 32 -5 4 -32 20 -60 36 -83 46 -89 49 -130 75 -22
13 -56 33 -76 44 -53 29 -129 73 -165 94 -62 38 -370 214 -391 225 -13 6 -23
14 -23 19 0 4 -5 7 -11 7 -6 0 -60 29 -120 64 -60 36 -118 67 -129 71 -11 3
-20 11 -20 16 0 5 -4 9 -9 9 -5 0 -73 38 -152 84 -182 105 -602 347 -650 374
l-36 20 0 -1068z"/>
</g>
</svg>
