<svg width="1000" height="700" viewBox="0 0 1000 700" enable-background="new 0 0 1000 700" xmlns="http://www.w3.org/2000/svg"><g data-name="layerEdge" transform="matrix(0.9971428571428571,0,0,0.9971428571428571,517.7514395393474,408.9481765834933)"><g data-name="gropeEdge"><g onload="edge" kor="52.4,31.5,365.5,63.7,208.95000000000002,47.6" data-name="edge" style="position: absolute;"><g onload="lineGeneral" kor="66,47.6,349.4,47.6" style="fill: none; position: absolute;" data-name="lineGeneral"><path d="M-378.21497120921305,-32.24568138195777 L-362.09213051823417,-409.11708253358927" style="stroke: rgb(0, 0, 0); stroke-width: 2; position: absolute;" data-name="LayGroupHTML"></path></g><g onload="lineDown" opacity="0" kor="66,47.6,349.4,47.6" style="fill: none; position: absolute; cursor: move;" data-name="lineDown"><path d="M-378.21497120921305,-32.24568138195777 L-362.09213051823417,-409.11708253358927" style="stroke: rgb(23, 198, 252); stroke-width: 11; stroke-linecap: round; position: absolute;" data-name="LayGroupHTML"></path></g><g onload="circleDown0" opacity="0" kor="52.4,32.7,82.2,62.5" data-name="circleDown0" transform="matrix(1,0,0,1,-445.51497120921306,-79.84568138195777)" style="position: absolute; cursor: move;"><path d="M 52.4,47.6 S 52.4,32.7 67.3,32.7 L 67.3,32.7 S 82.2,32.7 82.2,47.6 L 82.2,47.6 S 82.2,62.5 67.3,62.5 L 67.3,62.5 S 52.4,62.5 52.4,47.6 z  " style="fill: rgb(112, 249, 174); position: absolute;" data-name="LayGroupHTML"></path></g><g onload="circleDown1" opacity="0" kor="333.29999999999995,31.5,365.5,63.7" data-name="circleDown1" transform="matrix(1,0,0,1,-711.4921305182341,-456.7170825335893)" style="position: absolute; cursor: move;"><path d="M 333.29999999999995,47.6 S 333.29999999999995,31.5 349.4,31.5 L 349.4,31.5 S 365.5,31.5 365.5,47.6 L 365.5,47.6 S 365.5,63.7 349.4,63.7 L 349.4,63.7 S 333.29999999999995,63.7 333.29999999999995,47.6 z  " style="fill: rgb(112, 249, 174); position: absolute;" data-name="LayGroupHTML"></path></g><g onload="light" kor="305,204.9,666,254.3,485.5,229.60000000000002" data-name="light" style="position: absolute; display: none;"><g onload="fill" kor="305,204.9,666,253.9" data-name="fill" style="position: absolute;"><path d="M 305,204.9 L 666,204.9 L 666,253.9 L 305,253.9 z  " style="fill: rgb(204, 204, 204); position: absolute;" data-name="LayGroupHTML"></path></g><g onload="type" kor="313,206.1,529.5,254.3,421.25,230.2" data-name="type" style="position: absolute;"><g onload="face" kor="313,208.3,359,254.3,336,231.3" style="fill: none; position: absolute;" data-name="face"><path d="M 313,208.3 L 359,208.3 L 359,254.3 L 313,254.3 z  " style="position: absolute;" data-name="LayGroupHTML"></path><path d="M 326.59999999999997,229.8 S 326.59999999999997,220.5 335.9,220.5 L 335.9,220.5 S 345.2,220.5 345.2,229.8 L 345.2,229.8 S 345.2,239.10000000000002 335.9,239.10000000000002 L 335.9,239.10000000000002 S 326.59999999999997,239.10000000000002 326.59999999999997,229.8 z  " style="fill: rgb(255, 255, 255); stroke: rgb(0, 0, 0); stroke-width: 2; position: absolute;" data-name="LayGroupHTML_1"></path><g kor="317.3,210.7,354.4,249.1" style="fill: none; position: absolute;" data-name="LayGroupHTML_2"><path d="M 317.3,229.8 L 324.5,229.8  " style="stroke: rgb(0, 0, 0); stroke-width: 2; position: absolute;" data-name="LayGroupHTML"></path><path d="M 347.2,230.4 L 354.4,230.4  " style="stroke: rgb(0, 0, 0); stroke-width: 2; position: absolute;" data-name="LayGroupHTML_1"></path><path d="M 335.9,249.1 L 335.9,241.2  " style="stroke: rgb(0, 0, 0); stroke-width: 2; position: absolute;" data-name="LayGroupHTML_2"></path><path d="M 335.9,218.6 L 335.9,210.7  " style="stroke: rgb(0, 0, 0); stroke-width: 2; position: absolute;" data-name="LayGroupHTML_3"></path></g><g onload="face" kor="322.4,216.3,349.4,243.7,335.9,230" data-name="face" style="position: absolute;"><g kor="322.4,216.3,349.4,243.7" style="fill: none; position: absolute;" data-name="LayGroupHTML"><path d="M 322.7,216.8 L 327.8,221.9  " style="stroke: rgb(0, 0, 0); stroke-width: 2; position: absolute;" data-name="LayGroupHTML"></path><path d="M 343.6,238.3 L 348.7,243.3  " style="stroke: rgb(0, 0, 0); stroke-width: 2; position: absolute;" data-name="LayGroupHTML_1"></path><path d="M 322.4,243.7 L 328,238.1  " style="stroke: rgb(0, 0, 0); stroke-width: 2; position: absolute;" data-name="LayGroupHTML_2"></path><path d="M 343.8,222 L 349.4,216.3  " style="stroke: rgb(0, 0, 0); stroke-width: 2; position: absolute;" data-name="LayGroupHTML_3"></path></g></g></g><g onload="contur" kor="359.1,206.2,405.1,252.2,382.1,229.2" style="fill: none; position: absolute;" data-name="contur"><path d="M 359.1,206.2 L 405.1,206.2 L 405.1,252.2 L 359.1,252.2 z  " transform="matrix(8.789397e-03 -1 1 8.789397e-03 149.5836 609.2546)" style="position: absolute;" data-name="LayGroupHTML"></path><path d="M 372.4,232.2 C 372.4,227.1 376.6,222.9 381.8,222.9 C 386.9,222.9 391.1,227.1 391.1,232.3 L 372.4,232.2 z  " style="fill: rgb(255, 255, 255); stroke: rgb(0, 0, 0); stroke-width: 2; position: absolute;" data-name="LayGroupHTML_1"></path><g kor="374.5,214.1,398.8,228.3" style="fill: none; position: absolute;" data-name="LayGroupHTML_2"><path d="M 392.1,228.3 L 398.8,225.7  " style="stroke: rgb(0, 0, 0); stroke-width: 2; position: absolute;" data-name="LayGroupHTML"></path><path d="M 377.4,221.5 L 374.5,214.1  " style="stroke: rgb(0, 0, 0); stroke-width: 2; position: absolute;" data-name="LayGroupHTML_1"></path></g><g kor="364.3,214.4,391.6,236.9" style="fill: none; position: absolute;" data-name="LayGroupHTML_3"><path d="M 364.3,224.6 L 371,227.5  " style="stroke: rgb(0, 0, 0); stroke-width: 2; position: absolute;" data-name="LayGroupHTML"></path><path d="M 391.6,236.9  " style="fill: rgb(204, 204, 204); stroke: rgb(0, 0, 0); stroke-width: 2; position: absolute;" data-name="LayGroupHTML_1"></path><path d="M 385.9,221.7 L 389,214.4  " style="stroke: rgb(0, 0, 0); stroke-width: 2; position: absolute;" data-name="LayGroupHTML_2"></path></g></g><g onload="face+contur" kor="405.5,206.1,451.5,252.1,428.5,229.1" data-name="face+contur" style="position: absolute;"><path d="M 419,227.4 S 419,218.1 428.3,218.1 L 428.3,218.1 S 437.6,218.1 437.6,227.4 L 437.6,227.4 S 437.6,236.70000000000002 428.3,236.70000000000002 L 428.3,236.70000000000002 S 419,236.70000000000002 419,227.4 z  " style="fill: rgb(255, 255, 255); stroke: rgb(0, 0, 0); position: absolute;" data-name="LayGroupHTML"></path><g onload="contur" kor="405.5,206.1,451.5,252.1,428.5,229.1" style="fill: none; position: absolute;" data-name="contur"><path d="M 405.5,206.1 L 451.5,206.1 L 451.5,252.1 L 405.5,252.1 z  " transform="matrix(9.012791e-03 -1 1 9.012791e-03 195.5337 655.556)" style="position: absolute;" data-name="LayGroupHTML"></path><path d="M 419,227.4 C 419,222.3 423.1,218.1 428.3,218.1 C 433.4,218.1 437.6,222.3 437.6,227.5 L 419,227.4 z  " style="fill: rgb(255, 255, 255); stroke: rgb(0, 0, 0); position: absolute;" data-name="LayGroupHTML_1"></path><g kor="420.7,209.7,445.1,224.3" style="fill: none; position: absolute;" data-name="LayGroupHTML_2"><path d="M 438.4,224.3 L 445.1,221.7  " style="stroke: rgb(0, 0, 0); position: absolute;" data-name="LayGroupHTML"></path><path d="M 423.6,217.1 L 420.7,209.7  " style="stroke: rgb(0, 0, 0); position: absolute;" data-name="LayGroupHTML_1"></path></g><g kor="410.6,209.6,437.9,232.9" style="fill: none; position: absolute;" data-name="LayGroupHTML_3"><path d="M 410.6,220.6 L 417.3,223.5  " style="stroke: rgb(0, 0, 0); position: absolute;" data-name="LayGroupHTML"></path><path d="M 437.9,232.9  " style="fill: rgb(204, 204, 204); stroke: rgb(0, 0, 0); position: absolute;" data-name="LayGroupHTML_1"></path><path d="M 432.7,216.9 L 435.8,209.6  " style="stroke: rgb(0, 0, 0); position: absolute;" data-name="LayGroupHTML_2"></path></g></g><g kor="409.7,208.3,446.8,246.7" style="fill: none; position: absolute;" data-name="LayGroupHTML_1"><path d="M 409.7,227.4 L 416.9,227.4  " style="stroke: rgb(0, 0, 0); position: absolute;" data-name="LayGroupHTML"></path><path d="M 439.6,228 L 446.8,228  " style="stroke: rgb(0, 0, 0); position: absolute;" data-name="LayGroupHTML_1"></path><path d="M 428.3,246.7 L 428.3,238.8  " style="stroke: rgb(0, 0, 0); position: absolute;" data-name="LayGroupHTML_2"></path><path d="M 428.3,216.2 L 428.3,208.3  " style="stroke: rgb(0, 0, 0); position: absolute;" data-name="LayGroupHTML_3"></path></g><g onload="face" kor="414.8,213.9,441.8,241.3,428.3,227.60000000000002" data-name="face" style="position: absolute;"><g kor="414.8,213.9,441.8,241.3" style="fill: none; position: absolute;" data-name="LayGroupHTML"><path d="M 415.1,214.4 L 420.2,219.5  " style="stroke: rgb(0, 0, 0); position: absolute;" data-name="LayGroupHTML"></path><path d="M 436,235.9 L 441.1,240.9  " style="stroke: rgb(0, 0, 0); position: absolute;" data-name="LayGroupHTML_1"></path><path d="M 414.8,241.3 L 420.4,235.7  " style="stroke: rgb(0, 0, 0); position: absolute;" data-name="LayGroupHTML_2"></path><path d="M 436.2,219.6 L 441.8,213.9  " style="stroke: rgb(0, 0, 0); position: absolute;" data-name="LayGroupHTML_3"></path></g></g></g><g onload="none" kor="481.8,208.6,529.5,247" style="fill: none; position: absolute;" data-name="none"><path d="M 481.8,208.6 L 529.5,208.6 L 529.5,247 L 481.8,247 z  " style="position: absolute;" data-name="LayGroupHTML"></path></g></g></g></g><g onload="edge" kor="52.4,31.5,365.5,63.7,208.95000000000002,47.6" data-name="edge_1" style="position: absolute;"><g onload="lineGeneral" kor="66,47.6,349.4,47.6" style="fill: none; position: absolute;" data-name="lineGeneral"><path d="M-362.09213051823417,-409.11708253358927 L342.6103646833013,83.97312859884836" style="stroke: rgb(0, 0, 0); stroke-width: 2; position: absolute;" data-name="LayGroupHTML"></path></g><g onload="lineDown" opacity="0" kor="66,47.6,349.4,47.6" style="fill: none; position: absolute; cursor: move;" data-name="lineDown"><path d="M-362.09213051823417,-409.11708253358927 L342.6103646833013,83.97312859884836" style="stroke: rgb(23, 198, 252); stroke-width: 11; stroke-linecap: round; position: absolute;" data-name="LayGroupHTML"></path></g><g onload="circleDown0" opacity="0" kor="52.4,32.7,82.2,62.5" data-name="circleDown0" transform="matrix(1,0,0,1,-429.3921305182342,-456.7170825335893)" style="position: absolute; cursor: move;"><path d="M 52.4,47.6 S 52.4,32.7 67.3,32.7 L 67.3,32.7 S 82.2,32.7 82.2,47.6 L 82.2,47.6 S 82.2,62.5 67.3,62.5 L 67.3,62.5 S 52.4,62.5 52.4,47.6 z  " style="fill: rgb(112, 249, 174); position: absolute;" data-name="LayGroupHTML"></path></g><g onload="circleDown1" opacity="0" kor="333.29999999999995,31.5,365.5,63.7" data-name="circleDown1" transform="matrix(1,0,0,1,-6.78963531669865,36.37312859884836)" style="position: absolute; cursor: move;"><path d="M 333.29999999999995,47.6 S 333.29999999999995,31.5 349.4,31.5 L 349.4,31.5 S 365.5,31.5 365.5,47.6 L 365.5,47.6 S 365.5,63.7 349.4,63.7 L 349.4,63.7 S 333.29999999999995,63.7 333.29999999999995,47.6 z  " style="fill: rgb(112, 249, 174); position: absolute;" data-name="LayGroupHTML"></path></g><g onload="light" kor="305,204.9,666,254.3,485.5,229.60000000000002" data-name="light" style="position: absolute; display: none;"><g onload="fill" kor="305,204.9,666,253.9" data-name="fill" style="position: absolute;"><path d="M 305,204.9 L 666,204.9 L 666,253.9 L 305,253.9 z  " style="fill: rgb(204, 204, 204); position: absolute;" data-name="LayGroupHTML"></path></g><g onload="type" kor="313,206.1,529.5,254.3,421.25,230.2" data-name="type" style="position: absolute;"><g onload="face" kor="313,208.3,359,254.3,336,231.3" style="fill: none; position: absolute;" data-name="face"><path d="M 313,208.3 L 359,208.3 L 359,254.3 L 313,254.3 z  " style="position: absolute;" data-name="LayGroupHTML"></path><path d="M 326.59999999999997,229.8 S 326.59999999999997,220.5 335.9,220.5 L 335.9,220.5 S 345.2,220.5 345.2,229.8 L 345.2,229.8 S 345.2,239.10000000000002 335.9,239.10000000000002 L 335.9,239.10000000000002 S 326.59999999999997,239.10000000000002 326.59999999999997,229.8 z  " style="fill: rgb(255, 255, 255); stroke: rgb(0, 0, 0); stroke-width: 2; position: absolute;" data-name="LayGroupHTML_1"></path><g kor="317.3,210.7,354.4,249.1" style="fill: none; position: absolute;" data-name="LayGroupHTML_2"><path d="M 317.3,229.8 L 324.5,229.8  " style="stroke: rgb(0, 0, 0); stroke-width: 2; position: absolute;" data-name="LayGroupHTML"></path><path d="M 347.2,230.4 L 354.4,230.4  " style="stroke: rgb(0, 0, 0); stroke-width: 2; position: absolute;" data-name="LayGroupHTML_1"></path><path d="M 335.9,249.1 L 335.9,241.2  " style="stroke: rgb(0, 0, 0); stroke-width: 2; position: absolute;" data-name="LayGroupHTML_2"></path><path d="M 335.9,218.6 L 335.9,210.7  " style="stroke: rgb(0, 0, 0); stroke-width: 2; position: absolute;" data-name="LayGroupHTML_3"></path></g><g onload="face" kor="322.4,216.3,349.4,243.7,335.9,230" data-name="face" style="position: absolute;"><g kor="322.4,216.3,349.4,243.7" style="fill: none; position: absolute;" data-name="LayGroupHTML"><path d="M 322.7,216.8 L 327.8,221.9  " style="stroke: rgb(0, 0, 0); stroke-width: 2; position: absolute;" data-name="LayGroupHTML"></path><path d="M 343.6,238.3 L 348.7,243.3  " style="stroke: rgb(0, 0, 0); stroke-width: 2; position: absolute;" data-name="LayGroupHTML_1"></path><path d="M 322.4,243.7 L 328,238.1  " style="stroke: rgb(0, 0, 0); stroke-width: 2; position: absolute;" data-name="LayGroupHTML_2"></path><path d="M 343.8,222 L 349.4,216.3  " style="stroke: rgb(0, 0, 0); stroke-width: 2; position: absolute;" data-name="LayGroupHTML_3"></path></g></g></g><g onload="contur" kor="359.1,206.2,405.1,252.2,382.1,229.2" style="fill: none; position: absolute;" data-name="contur"><path d="M 359.1,206.2 L 405.1,206.2 L 405.1,252.2 L 359.1,252.2 z  " transform="matrix(8.789397e-03 -1 1 8.789397e-03 149.5836 609.2546)" style="position: absolute;" data-name="LayGroupHTML"></path><path d="M 372.4,232.2 C 372.4,227.1 376.6,222.9 381.8,222.9 C 386.9,222.9 391.1,227.1 391.1,232.3 L 372.4,232.2 z  " style="fill: rgb(255, 255, 255); stroke: rgb(0, 0, 0); stroke-width: 2; position: absolute;" data-name="LayGroupHTML_1"></path><g kor="374.5,214.1,398.8,228.3" style="fill: none; position: absolute;" data-name="LayGroupHTML_2"><path d="M 392.1,228.3 L 398.8,225.7  " style="stroke: rgb(0, 0, 0); stroke-width: 2; position: absolute;" data-name="LayGroupHTML"></path><path d="M 377.4,221.5 L 374.5,214.1  " style="stroke: rgb(0, 0, 0); stroke-width: 2; position: absolute;" data-name="LayGroupHTML_1"></path></g><g kor="364.3,214.4,391.6,236.9" style="fill: none; position: absolute;" data-name="LayGroupHTML_3"><path d="M 364.3,224.6 L 371,227.5  " style="stroke: rgb(0, 0, 0); stroke-width: 2; position: absolute;" data-name="LayGroupHTML"></path><path d="M 391.6,236.9  " style="fill: rgb(204, 204, 204); stroke: rgb(0, 0, 0); stroke-width: 2; position: absolute;" data-name="LayGroupHTML_1"></path><path d="M 385.9,221.7 L 389,214.4  " style="stroke: rgb(0, 0, 0); stroke-width: 2; position: absolute;" data-name="LayGroupHTML_2"></path></g></g><g onload="face+contur" kor="405.5,206.1,451.5,252.1,428.5,229.1" data-name="face+contur" style="position: absolute;"><path d="M 419,227.4 S 419,218.1 428.3,218.1 L 428.3,218.1 S 437.6,218.1 437.6,227.4 L 437.6,227.4 S 437.6,236.70000000000002 428.3,236.70000000000002 L 428.3,236.70000000000002 S 419,236.70000000000002 419,227.4 z  " style="fill: rgb(255, 255, 255); stroke: rgb(0, 0, 0); position: absolute;" data-name="LayGroupHTML"></path><g onload="contur" kor="405.5,206.1,451.5,252.1,428.5,229.1" style="fill: none; position: absolute;" data-name="contur"><path d="M 405.5,206.1 L 451.5,206.1 L 451.5,252.1 L 405.5,252.1 z  " transform="matrix(9.012791e-03 -1 1 9.012791e-03 195.5337 655.556)" style="position: absolute;" data-name="LayGroupHTML"></path><path d="M 419,227.4 C 419,222.3 423.1,218.1 428.3,218.1 C 433.4,218.1 437.6,222.3 437.6,227.5 L 419,227.4 z  " style="fill: rgb(255, 255, 255); stroke: rgb(0, 0, 0); position: absolute;" data-name="LayGroupHTML_1"></path><g kor="420.7,209.7,445.1,224.3" style="fill: none; position: absolute;" data-name="LayGroupHTML_2"><path d="M 438.4,224.3 L 445.1,221.7  " style="stroke: rgb(0, 0, 0); position: absolute;" data-name="LayGroupHTML"></path><path d="M 423.6,217.1 L 420.7,209.7  " style="stroke: rgb(0, 0, 0); position: absolute;" data-name="LayGroupHTML_1"></path></g><g kor="410.6,209.6,437.9,232.9" style="fill: none; position: absolute;" data-name="LayGroupHTML_3"><path d="M 410.6,220.6 L 417.3,223.5  " style="stroke: rgb(0, 0, 0); position: absolute;" data-name="LayGroupHTML"></path><path d="M 437.9,232.9  " style="fill: rgb(204, 204, 204); stroke: rgb(0, 0, 0); position: absolute;" data-name="LayGroupHTML_1"></path><path d="M 432.7,216.9 L 435.8,209.6  " style="stroke: rgb(0, 0, 0); position: absolute;" data-name="LayGroupHTML_2"></path></g></g><g kor="409.7,208.3,446.8,246.7" style="fill: none; position: absolute;" data-name="LayGroupHTML_1"><path d="M 409.7,227.4 L 416.9,227.4  " style="stroke: rgb(0, 0, 0); position: absolute;" data-name="LayGroupHTML"></path><path d="M 439.6,228 L 446.8,228  " style="stroke: rgb(0, 0, 0); position: absolute;" data-name="LayGroupHTML_1"></path><path d="M 428.3,246.7 L 428.3,238.8  " style="stroke: rgb(0, 0, 0); position: absolute;" data-name="LayGroupHTML_2"></path><path d="M 428.3,216.2 L 428.3,208.3  " style="stroke: rgb(0, 0, 0); position: absolute;" data-name="LayGroupHTML_3"></path></g><g onload="face" kor="414.8,213.9,441.8,241.3,428.3,227.60000000000002" data-name="face" style="position: absolute;"><g kor="414.8,213.9,441.8,241.3" style="fill: none; position: absolute;" data-name="LayGroupHTML"><path d="M 415.1,214.4 L 420.2,219.5  " style="stroke: rgb(0, 0, 0); position: absolute;" data-name="LayGroupHTML"></path><path d="M 436,235.9 L 441.1,240.9  " style="stroke: rgb(0, 0, 0); position: absolute;" data-name="LayGroupHTML_1"></path><path d="M 414.8,241.3 L 420.4,235.7  " style="stroke: rgb(0, 0, 0); position: absolute;" data-name="LayGroupHTML_2"></path><path d="M 436.2,219.6 L 441.8,213.9  " style="stroke: rgb(0, 0, 0); position: absolute;" data-name="LayGroupHTML_3"></path></g></g></g><g onload="none" kor="481.8,208.6,529.5,247" style="fill: none; position: absolute;" data-name="none"><path d="M 481.8,208.6 L 529.5,208.6 L 529.5,247 L 481.8,247 z  " style="position: absolute;" data-name="LayGroupHTML"></path></g></g></g></g><g onload="edge" kor="52.4,31.5,365.5,63.7,208.95000000000002,47.6" data-name="edge_2" style="position: absolute;"><g onload="lineGeneral" kor="66,47.6,349.4,47.6" style="fill: none; position: absolute;" data-name="lineGeneral"><path d="M342.6103646833013,83.97312859884836 L57.773512476007674,290.88291746641073" style="stroke: rgb(0, 0, 0); stroke-width: 2; position: absolute;" data-name="LayGroupHTML"></path></g><g onload="lineDown" opacity="0" kor="66,47.6,349.4,47.6" style="fill: none; position: absolute; cursor: move;" data-name="lineDown"><path d="M342.6103646833013,83.97312859884836 L57.773512476007674,290.88291746641073" style="stroke: rgb(23, 198, 252); stroke-width: 11; stroke-linecap: round; position: absolute;" data-name="LayGroupHTML"></path></g><g onload="circleDown0" opacity="0" kor="52.4,32.7,82.2,62.5" data-name="circleDown0" transform="matrix(1,0,0,1,275.3103646833013,36.37312859884836)" style="position: absolute; cursor: move;"><path d="M 52.4,47.6 S 52.4,32.7 67.3,32.7 L 67.3,32.7 S 82.2,32.7 82.2,47.6 L 82.2,47.6 S 82.2,62.5 67.3,62.5 L 67.3,62.5 S 52.4,62.5 52.4,47.6 z  " style="fill: rgb(112, 249, 174); position: absolute;" data-name="LayGroupHTML"></path></g><g onload="circleDown1" opacity="0" kor="333.29999999999995,31.5,365.5,63.7" data-name="circleDown1" transform="matrix(1,0,0,1,-291.6264875239923,243.28291746641074)" style="position: absolute; cursor: move;"><path d="M 333.29999999999995,47.6 S 333.29999999999995,31.5 349.4,31.5 L 349.4,31.5 S 365.5,31.5 365.5,47.6 L 365.5,47.6 S 365.5,63.7 349.4,63.7 L 349.4,63.7 S 333.29999999999995,63.7 333.29999999999995,47.6 z  " style="fill: rgb(112, 249, 174); position: absolute;" data-name="LayGroupHTML"></path></g><g onload="light" kor="305,204.9,666,254.3,485.5,229.60000000000002" data-name="light" style="position: absolute; display: none;"><g onload="fill" kor="305,204.9,666,253.9" data-name="fill" style="position: absolute;"><path d="M 305,204.9 L 666,204.9 L 666,253.9 L 305,253.9 z  " style="fill: rgb(204, 204, 204); position: absolute;" data-name="LayGroupHTML"></path></g><g onload="type" kor="313,206.1,529.5,254.3,421.25,230.2" data-name="type" style="position: absolute;"><g onload="face" kor="313,208.3,359,254.3,336,231.3" style="fill: none; position: absolute;" data-name="face"><path d="M 313,208.3 L 359,208.3 L 359,254.3 L 313,254.3 z  " style="position: absolute;" data-name="LayGroupHTML"></path><path d="M 326.59999999999997,229.8 S 326.59999999999997,220.5 335.9,220.5 L 335.9,220.5 S 345.2,220.5 345.2,229.8 L 345.2,229.8 S 345.2,239.10000000000002 335.9,239.10000000000002 L 335.9,239.10000000000002 S 326.59999999999997,239.10000000000002 326.59999999999997,229.8 z  " style="fill: rgb(255, 255, 255); stroke: rgb(0, 0, 0); stroke-width: 2; position: absolute;" data-name="LayGroupHTML_1"></path><g kor="317.3,210.7,354.4,249.1" style="fill: none; position: absolute;" data-name="LayGroupHTML_2"><path d="M 317.3,229.8 L 324.5,229.8  " style="stroke: rgb(0, 0, 0); stroke-width: 2; position: absolute;" data-name="LayGroupHTML"></path><path d="M 347.2,230.4 L 354.4,230.4  " style="stroke: rgb(0, 0, 0); stroke-width: 2; position: absolute;" data-name="LayGroupHTML_1"></path><path d="M 335.9,249.1 L 335.9,241.2  " style="stroke: rgb(0, 0, 0); stroke-width: 2; position: absolute;" data-name="LayGroupHTML_2"></path><path d="M 335.9,218.6 L 335.9,210.7  " style="stroke: rgb(0, 0, 0); stroke-width: 2; position: absolute;" data-name="LayGroupHTML_3"></path></g><g onload="face" kor="322.4,216.3,349.4,243.7,335.9,230" data-name="face" style="position: absolute;"><g kor="322.4,216.3,349.4,243.7" style="fill: none; position: absolute;" data-name="LayGroupHTML"><path d="M 322.7,216.8 L 327.8,221.9  " style="stroke: rgb(0, 0, 0); stroke-width: 2; position: absolute;" data-name="LayGroupHTML"></path><path d="M 343.6,238.3 L 348.7,243.3  " style="stroke: rgb(0, 0, 0); stroke-width: 2; position: absolute;" data-name="LayGroupHTML_1"></path><path d="M 322.4,243.7 L 328,238.1  " style="stroke: rgb(0, 0, 0); stroke-width: 2; position: absolute;" data-name="LayGroupHTML_2"></path><path d="M 343.8,222 L 349.4,216.3  " style="stroke: rgb(0, 0, 0); stroke-width: 2; position: absolute;" data-name="LayGroupHTML_3"></path></g></g></g><g onload="contur" kor="359.1,206.2,405.1,252.2,382.1,229.2" style="fill: none; position: absolute;" data-name="contur"><path d="M 359.1,206.2 L 405.1,206.2 L 405.1,252.2 L 359.1,252.2 z  " transform="matrix(8.789397e-03 -1 1 8.789397e-03 149.5836 609.2546)" style="position: absolute;" data-name="LayGroupHTML"></path><path d="M 372.4,232.2 C 372.4,227.1 376.6,222.9 381.8,222.9 C 386.9,222.9 391.1,227.1 391.1,232.3 L 372.4,232.2 z  " style="fill: rgb(255, 255, 255); stroke: rgb(0, 0, 0); stroke-width: 2; position: absolute;" data-name="LayGroupHTML_1"></path><g kor="374.5,214.1,398.8,228.3" style="fill: none; position: absolute;" data-name="LayGroupHTML_2"><path d="M 392.1,228.3 L 398.8,225.7  " style="stroke: rgb(0, 0, 0); stroke-width: 2; position: absolute;" data-name="LayGroupHTML"></path><path d="M 377.4,221.5 L 374.5,214.1  " style="stroke: rgb(0, 0, 0); stroke-width: 2; position: absolute;" data-name="LayGroupHTML_1"></path></g><g kor="364.3,214.4,391.6,236.9" style="fill: none; position: absolute;" data-name="LayGroupHTML_3"><path d="M 364.3,224.6 L 371,227.5  " style="stroke: rgb(0, 0, 0); stroke-width: 2; position: absolute;" data-name="LayGroupHTML"></path><path d="M 391.6,236.9  " style="fill: rgb(204, 204, 204); stroke: rgb(0, 0, 0); stroke-width: 2; position: absolute;" data-name="LayGroupHTML_1"></path><path d="M 385.9,221.7 L 389,214.4  " style="stroke: rgb(0, 0, 0); stroke-width: 2; position: absolute;" data-name="LayGroupHTML_2"></path></g></g><g onload="face+contur" kor="405.5,206.1,451.5,252.1,428.5,229.1" data-name="face+contur" style="position: absolute;"><path d="M 419,227.4 S 419,218.1 428.3,218.1 L 428.3,218.1 S 437.6,218.1 437.6,227.4 L 437.6,227.4 S 437.6,236.70000000000002 428.3,236.70000000000002 L 428.3,236.70000000000002 S 419,236.70000000000002 419,227.4 z  " style="fill: rgb(255, 255, 255); stroke: rgb(0, 0, 0); position: absolute;" data-name="LayGroupHTML"></path><g onload="contur" kor="405.5,206.1,451.5,252.1,428.5,229.1" style="fill: none; position: absolute;" data-name="contur"><path d="M 405.5,206.1 L 451.5,206.1 L 451.5,252.1 L 405.5,252.1 z  " transform="matrix(9.012791e-03 -1 1 9.012791e-03 195.5337 655.556)" style="position: absolute;" data-name="LayGroupHTML"></path><path d="M 419,227.4 C 419,222.3 423.1,218.1 428.3,218.1 C 433.4,218.1 437.6,222.3 437.6,227.5 L 419,227.4 z  " style="fill: rgb(255, 255, 255); stroke: rgb(0, 0, 0); position: absolute;" data-name="LayGroupHTML_1"></path><g kor="420.7,209.7,445.1,224.3" style="fill: none; position: absolute;" data-name="LayGroupHTML_2"><path d="M 438.4,224.3 L 445.1,221.7  " style="stroke: rgb(0, 0, 0); position: absolute;" data-name="LayGroupHTML"></path><path d="M 423.6,217.1 L 420.7,209.7  " style="stroke: rgb(0, 0, 0); position: absolute;" data-name="LayGroupHTML_1"></path></g><g kor="410.6,209.6,437.9,232.9" style="fill: none; position: absolute;" data-name="LayGroupHTML_3"><path d="M 410.6,220.6 L 417.3,223.5  " style="stroke: rgb(0, 0, 0); position: absolute;" data-name="LayGroupHTML"></path><path d="M 437.9,232.9  " style="fill: rgb(204, 204, 204); stroke: rgb(0, 0, 0); position: absolute;" data-name="LayGroupHTML_1"></path><path d="M 432.7,216.9 L 435.8,209.6  " style="stroke: rgb(0, 0, 0); position: absolute;" data-name="LayGroupHTML_2"></path></g></g><g kor="409.7,208.3,446.8,246.7" style="fill: none; position: absolute;" data-name="LayGroupHTML_1"><path d="M 409.7,227.4 L 416.9,227.4  " style="stroke: rgb(0, 0, 0); position: absolute;" data-name="LayGroupHTML"></path><path d="M 439.6,228 L 446.8,228  " style="stroke: rgb(0, 0, 0); position: absolute;" data-name="LayGroupHTML_1"></path><path d="M 428.3,246.7 L 428.3,238.8  " style="stroke: rgb(0, 0, 0); position: absolute;" data-name="LayGroupHTML_2"></path><path d="M 428.3,216.2 L 428.3,208.3  " style="stroke: rgb(0, 0, 0); position: absolute;" data-name="LayGroupHTML_3"></path></g><g onload="face" kor="414.8,213.9,441.8,241.3,428.3,227.60000000000002" data-name="face" style="position: absolute;"><g kor="414.8,213.9,441.8,241.3" style="fill: none; position: absolute;" data-name="LayGroupHTML"><path d="M 415.1,214.4 L 420.2,219.5  " style="stroke: rgb(0, 0, 0); position: absolute;" data-name="LayGroupHTML"></path><path d="M 436,235.9 L 441.1,240.9  " style="stroke: rgb(0, 0, 0); position: absolute;" data-name="LayGroupHTML_1"></path><path d="M 414.8,241.3 L 420.4,235.7  " style="stroke: rgb(0, 0, 0); position: absolute;" data-name="LayGroupHTML_2"></path><path d="M 436.2,219.6 L 441.8,213.9  " style="stroke: rgb(0, 0, 0); position: absolute;" data-name="LayGroupHTML_3"></path></g></g></g><g onload="none" kor="481.8,208.6,529.5,247" style="fill: none; position: absolute;" data-name="none"><path d="M 481.8,208.6 L 529.5,208.6 L 529.5,247 L 481.8,247 z  " style="position: absolute;" data-name="LayGroupHTML"></path></g></g></g></g><g onload="edge" kor="52.4,31.5,365.5,63.7,208.95000000000002,47.6" data-name="edge_3" style="position: absolute;"><g onload="lineGeneral" kor="66,47.6,349.4,47.6" style="fill: none; position: absolute;" data-name="lineGeneral"><path d="M57.773512476007674,290.88291746641073 L-378.21497120921305,-32.24568138195777" style="stroke: rgb(0, 0, 0); stroke-width: 2; position: absolute;" data-name="LayGroupHTML"></path></g><g onload="lineDown" opacity="0" kor="66,47.6,349.4,47.6" style="fill: none; position: absolute; cursor: move;" data-name="lineDown"><path d="M57.773512476007674,290.88291746641073 L-378.21497120921305,-32.24568138195777" style="stroke: rgb(23, 198, 252); stroke-width: 11; stroke-linecap: round; position: absolute;" data-name="LayGroupHTML"></path></g><g onload="circleDown0" opacity="0" kor="52.4,32.7,82.2,62.5" data-name="circleDown0" transform="matrix(1,0,0,1,-9.526487523992323,243.28291746641074)" style="position: absolute; cursor: move;"><path d="M 52.4,47.6 S 52.4,32.7 67.3,32.7 L 67.3,32.7 S 82.2,32.7 82.2,47.6 L 82.2,47.6 S 82.2,62.5 67.3,62.5 L 67.3,62.5 S 52.4,62.5 52.4,47.6 z  " style="fill: rgb(112, 249, 174); position: absolute;" data-name="LayGroupHTML"></path></g><g onload="circleDown1" opacity="0" kor="333.29999999999995,31.5,365.5,63.7" data-name="circleDown1" transform="matrix(1,0,0,1,-727.6149712092131,-79.84568138195777)" style="position: absolute; cursor: move;"><path d="M 333.29999999999995,47.6 S 333.29999999999995,31.5 349.4,31.5 L 349.4,31.5 S 365.5,31.5 365.5,47.6 L 365.5,47.6 S 365.5,63.7 349.4,63.7 L 349.4,63.7 S 333.29999999999995,63.7 333.29999999999995,47.6 z  " style="fill: rgb(112, 249, 174); position: absolute;" data-name="LayGroupHTML"></path></g><g onload="light" kor="305,204.9,666,254.3,485.5,229.60000000000002" data-name="light" style="position: absolute; display: none;"><g onload="fill" kor="305,204.9,666,253.9" data-name="fill" style="position: absolute;"><path d="M 305,204.9 L 666,204.9 L 666,253.9 L 305,253.9 z  " style="fill: rgb(204, 204, 204); position: absolute;" data-name="LayGroupHTML"></path></g><g onload="type" kor="313,206.1,529.5,254.3,421.25,230.2" data-name="type" style="position: absolute;"><g onload="face" kor="313,208.3,359,254.3,336,231.3" style="fill: none; position: absolute;" data-name="face"><path d="M 313,208.3 L 359,208.3 L 359,254.3 L 313,254.3 z  " style="position: absolute;" data-name="LayGroupHTML"></path><path d="M 326.59999999999997,229.8 S 326.59999999999997,220.5 335.9,220.5 L 335.9,220.5 S 345.2,220.5 345.2,229.8 L 345.2,229.8 S 345.2,239.10000000000002 335.9,239.10000000000002 L 335.9,239.10000000000002 S 326.59999999999997,239.10000000000002 326.59999999999997,229.8 z  " style="fill: rgb(255, 255, 255); stroke: rgb(0, 0, 0); stroke-width: 2; position: absolute;" data-name="LayGroupHTML_1"></path><g kor="317.3,210.7,354.4,249.1" style="fill: none; position: absolute;" data-name="LayGroupHTML_2"><path d="M 317.3,229.8 L 324.5,229.8  " style="stroke: rgb(0, 0, 0); stroke-width: 2; position: absolute;" data-name="LayGroupHTML"></path><path d="M 347.2,230.4 L 354.4,230.4  " style="stroke: rgb(0, 0, 0); stroke-width: 2; position: absolute;" data-name="LayGroupHTML_1"></path><path d="M 335.9,249.1 L 335.9,241.2  " style="stroke: rgb(0, 0, 0); stroke-width: 2; position: absolute;" data-name="LayGroupHTML_2"></path><path d="M 335.9,218.6 L 335.9,210.7  " style="stroke: rgb(0, 0, 0); stroke-width: 2; position: absolute;" data-name="LayGroupHTML_3"></path></g><g onload="face" kor="322.4,216.3,349.4,243.7,335.9,230" data-name="face" style="position: absolute;"><g kor="322.4,216.3,349.4,243.7" style="fill: none; position: absolute;" data-name="LayGroupHTML"><path d="M 322.7,216.8 L 327.8,221.9  " style="stroke: rgb(0, 0, 0); stroke-width: 2; position: absolute;" data-name="LayGroupHTML"></path><path d="M 343.6,238.3 L 348.7,243.3  " style="stroke: rgb(0, 0, 0); stroke-width: 2; position: absolute;" data-name="LayGroupHTML_1"></path><path d="M 322.4,243.7 L 328,238.1  " style="stroke: rgb(0, 0, 0); stroke-width: 2; position: absolute;" data-name="LayGroupHTML_2"></path><path d="M 343.8,222 L 349.4,216.3  " style="stroke: rgb(0, 0, 0); stroke-width: 2; position: absolute;" data-name="LayGroupHTML_3"></path></g></g></g><g onload="contur" kor="359.1,206.2,405.1,252.2,382.1,229.2" style="fill: none; position: absolute;" data-name="contur"><path d="M 359.1,206.2 L 405.1,206.2 L 405.1,252.2 L 359.1,252.2 z  " transform="matrix(8.789397e-03 -1 1 8.789397e-03 149.5836 609.2546)" style="position: absolute;" data-name="LayGroupHTML"></path><path d="M 372.4,232.2 C 372.4,227.1 376.6,222.9 381.8,222.9 C 386.9,222.9 391.1,227.1 391.1,232.3 L 372.4,232.2 z  " style="fill: rgb(255, 255, 255); stroke: rgb(0, 0, 0); stroke-width: 2; position: absolute;" data-name="LayGroupHTML_1"></path><g kor="374.5,214.1,398.8,228.3" style="fill: none; position: absolute;" data-name="LayGroupHTML_2"><path d="M 392.1,228.3 L 398.8,225.7  " style="stroke: rgb(0, 0, 0); stroke-width: 2; position: absolute;" data-name="LayGroupHTML"></path><path d="M 377.4,221.5 L 374.5,214.1  " style="stroke: rgb(0, 0, 0); stroke-width: 2; position: absolute;" data-name="LayGroupHTML_1"></path></g><g kor="364.3,214.4,391.6,236.9" style="fill: none; position: absolute;" data-name="LayGroupHTML_3"><path d="M 364.3,224.6 L 371,227.5  " style="stroke: rgb(0, 0, 0); stroke-width: 2; position: absolute;" data-name="LayGroupHTML"></path><path d="M 391.6,236.9  " style="fill: rgb(204, 204, 204); stroke: rgb(0, 0, 0); stroke-width: 2; position: absolute;" data-name="LayGroupHTML_1"></path><path d="M 385.9,221.7 L 389,214.4  " style="stroke: rgb(0, 0, 0); stroke-width: 2; position: absolute;" data-name="LayGroupHTML_2"></path></g></g><g onload="face+contur" kor="405.5,206.1,451.5,252.1,428.5,229.1" data-name="face+contur" style="position: absolute;"><path d="M 419,227.4 S 419,218.1 428.3,218.1 L 428.3,218.1 S 437.6,218.1 437.6,227.4 L 437.6,227.4 S 437.6,236.70000000000002 428.3,236.70000000000002 L 428.3,236.70000000000002 S 419,236.70000000000002 419,227.4 z  " style="fill: rgb(255, 255, 255); stroke: rgb(0, 0, 0); position: absolute;" data-name="LayGroupHTML"></path><g onload="contur" kor="405.5,206.1,451.5,252.1,428.5,229.1" style="fill: none; position: absolute;" data-name="contur"><path d="M 405.5,206.1 L 451.5,206.1 L 451.5,252.1 L 405.5,252.1 z  " transform="matrix(9.012791e-03 -1 1 9.012791e-03 195.5337 655.556)" style="position: absolute;" data-name="LayGroupHTML"></path><path d="M 419,227.4 C 419,222.3 423.1,218.1 428.3,218.1 C 433.4,218.1 437.6,222.3 437.6,227.5 L 419,227.4 z  " style="fill: rgb(255, 255, 255); stroke: rgb(0, 0, 0); position: absolute;" data-name="LayGroupHTML_1"></path><g kor="420.7,209.7,445.1,224.3" style="fill: none; position: absolute;" data-name="LayGroupHTML_2"><path d="M 438.4,224.3 L 445.1,221.7  " style="stroke: rgb(0, 0, 0); position: absolute;" data-name="LayGroupHTML"></path><path d="M 423.6,217.1 L 420.7,209.7  " style="stroke: rgb(0, 0, 0); position: absolute;" data-name="LayGroupHTML_1"></path></g><g kor="410.6,209.6,437.9,232.9" style="fill: none; position: absolute;" data-name="LayGroupHTML_3"><path d="M 410.6,220.6 L 417.3,223.5  " style="stroke: rgb(0, 0, 0); position: absolute;" data-name="LayGroupHTML"></path><path d="M 437.9,232.9  " style="fill: rgb(204, 204, 204); stroke: rgb(0, 0, 0); position: absolute;" data-name="LayGroupHTML_1"></path><path d="M 432.7,216.9 L 435.8,209.6  " style="stroke: rgb(0, 0, 0); position: absolute;" data-name="LayGroupHTML_2"></path></g></g><g kor="409.7,208.3,446.8,246.7" style="fill: none; position: absolute;" data-name="LayGroupHTML_1"><path d="M 409.7,227.4 L 416.9,227.4  " style="stroke: rgb(0, 0, 0); position: absolute;" data-name="LayGroupHTML"></path><path d="M 439.6,228 L 446.8,228  " style="stroke: rgb(0, 0, 0); position: absolute;" data-name="LayGroupHTML_1"></path><path d="M 428.3,246.7 L 428.3,238.8  " style="stroke: rgb(0, 0, 0); position: absolute;" data-name="LayGroupHTML_2"></path><path d="M 428.3,216.2 L 428.3,208.3  " style="stroke: rgb(0, 0, 0); position: absolute;" data-name="LayGroupHTML_3"></path></g><g onload="face" kor="414.8,213.9,441.8,241.3,428.3,227.60000000000002" data-name="face" style="position: absolute;"><g kor="414.8,213.9,441.8,241.3" style="fill: none; position: absolute;" data-name="LayGroupHTML"><path d="M 415.1,214.4 L 420.2,219.5  " style="stroke: rgb(0, 0, 0); position: absolute;" data-name="LayGroupHTML"></path><path d="M 436,235.9 L 441.1,240.9  " style="stroke: rgb(0, 0, 0); position: absolute;" data-name="LayGroupHTML_1"></path><path d="M 414.8,241.3 L 420.4,235.7  " style="stroke: rgb(0, 0, 0); position: absolute;" data-name="LayGroupHTML_2"></path><path d="M 436.2,219.6 L 441.8,213.9  " style="stroke: rgb(0, 0, 0); position: absolute;" data-name="LayGroupHTML_3"></path></g></g></g><g onload="none" kor="481.8,208.6,529.5,247" style="fill: none; position: absolute;" data-name="none"><path d="M 481.8,208.6 L 529.5,208.6 L 529.5,247 L 481.8,247 z  " style="position: absolute;" data-name="LayGroupHTML"></path></g></g></g></g></g><g data-name="gropeTypeLigth" style="display: none; pointer-events: none;"></g></g><g data-name="lineSize" transform="matrix(0.9971428571428571,0,0,0.9971428571428571,517.7514395393474,408.9481765834933)"></g><def><text id="dataSave">{"edge":[{"type":"LineEdge","option":{"cord":[[-563,-48],[-539,-609]],"r":1,"vec":1,"aspect":1,"group":{"option":[{"name":"Аспект","type":["CircEdge"],"value":true,"nameOption":"aspect"},{"name":"Радиус","type":["CircEdge"],"value":true,"nameOption":"r"}],"arIndex":[0]},"light":{"width":5,"type":"contur","paddingCenter":15,"typeGlow":"neutral"},"fixedAng":[{"fix":false,"ang":0},{"fix":false,"ang":0}]}},{"type":"LineEdge","option":{"cord":[[-539,-609],[510,125]],"r":1,"vec":1,"aspect":1,"group":{"option":[{"name":"Аспект","type":["CircEdge"],"value":true,"nameOption":"aspect"},{"name":"Радиус","type":["CircEdge"],"value":true,"nameOption":"r"}],"arIndex":[1]},"light":{"width":5,"type":"contur","paddingCenter":15,"typeGlow":"neutral"},"fixedAng":[{"fix":false,"ang":0},{"fix":false,"ang":0}]}},{"type":"LineEdge","option":{"cord":[[510,125],[86,433]],"r":1,"vec":1,"aspect":1,"group":{"option":[{"name":"Аспект","type":["CircEdge"],"value":true,"nameOption":"aspect"},{"name":"Радиус","type":["CircEdge"],"value":true,"nameOption":"r"}],"arIndex":[2]},"light":{"width":5,"type":"contur","paddingCenter":15,"typeGlow":"neutral"},"fixedAng":[{"fix":false,"ang":0},{"fix":false,"ang":0}]}},{"type":"LineEdge","option":{"cord":[[86,433],[-563,-48]],"r":1,"vec":1,"aspect":1,"group":{"option":[{"name":"Аспект","type":["CircEdge"],"value":true,"nameOption":"aspect"},{"name":"Радиус","type":["CircEdge"],"value":true,"nameOption":"r"}],"arIndex":[3]},"light":{"width":5,"type":"contur","paddingCenter":15,"typeGlow":"neutral"},"fixedAng":[{"fix":false,"ang":0},{"fix":false,"ang":0}]}}]}</text></def></svg>