<svg xmlns="http://www.w3.org/2000/svg" width="50" height="50" fill="currentColor" viewBox="0 0 50 50">
  <g clip-path="url(#prefix__clip0_148_120)">
    <path d="M10.742 12.305a.977.977 0 100 1.954.977.977 0 000-1.954z"/>
    <path d="M45.989 20.657l-1.413-2.826c-.5-1-1.504-1.62-2.62-1.62h-8.168V9.376a2.933 2.933 0 00-2.93-2.93H2.93A2.933 2.933 0 000 9.376v25.39a2.933 2.933 0 002.93 2.929h2.93c0 1.5.566 2.868 1.496 3.906H.976a.977.977 0 000 1.953h48.046a.977.977 0 000-1.953h-2.474a5.835 5.835 0 001.497-3.906c0-.056-.003-.111-.004-.167a2.934 2.934 0 001.957-2.763v-5.398c0-1.14.226-.076-4.01-8.71zm-1.477 1.413l2.93 5.86h-9.748v-5.86h6.818zM1.953 29.883h1.953v1.953H1.953v-1.953zM11.718 41.6a3.91 3.91 0 01-3.827-4.689 3.915 3.915 0 013.827-3.123c1.85 0 3.46 1.313 3.827 3.123l.001.005a3.91 3.91 0 01-3.828 4.684zm0-9.765a5.88 5.88 0 00-5.524 3.906H2.93a.978.978 0 01-.977-.977v-.977h2.93c.539 0 .976-.437.976-.976v-3.906a.977.977 0 00-.976-.977h-2.93V9.376c0-.539.438-.977.977-.977h27.928c.539 0 .977.438.977.977v26.366H17.242a5.88 5.88 0 00-5.524-3.906zm4.363 9.765a5.835 5.835 0 001.496-3.906h18.75c0 1.5.567 2.868 1.496 3.906H16.081zm26.105 0a3.91 3.91 0 01-3.827-4.689 3.915 3.915 0 013.827-3.123c1.85 0 3.46 1.313 3.827 3.123v.005a3.91 3.91 0 01-3.828 4.684zm5.859-6.836c0 .325-.16.612-.405.79a5.88 5.88 0 00-5.454-3.72 5.88 5.88 0 00-5.525 3.907h-2.873V18.164h8.167c.373 0 .707.207.874.54l.706 1.413h-6.818a.977.977 0 00-.976.977v7.812c0 .54.437.977.976.977h11.328v4.882z"/>
    <path d="M26.952 12.305H14.648a.977.977 0 000 1.953h12.304a.977.977 0 000-1.953zM26.952 16.211h-8.398a.977.977 0 000 1.954h8.398a.977.977 0 000-1.954zM42.186 35.742a1.955 1.955 0 00-1.953 1.953c0 1.077.876 1.953 1.953 1.953a1.955 1.955 0 001.953-1.953 1.955 1.955 0 00-1.953-1.953zM11.718 35.742a1.955 1.955 0 00-1.953 1.953c0 1.077.876 1.953 1.953 1.953a1.955 1.955 0 001.953-1.953 1.955 1.955 0 00-1.953-1.953z"/>
  </g>
  <defs>
    <clipPath id="prefix__clip0_148_120">
      <path fill="#fff" d="M0 0h50v50H0z"/>
    </clipPath>
  </defs>
</svg>
