<svg xmlns="http://www.w3.org/2000/svg" width="50" height="50" fill="currentColor" viewBox="0 0 50 50">
  <path  d="M45.99 2.057H4.01C1.8 2.057 0 3.857 0 6.068V32.96c0 2.212 1.8 4.011 4.01 4.011h11.95v4.24h-1.954a5.534 5.534 0 00-5.527 5.527v.208c0 .55.446.998.997.998h31.047c.551 0 .998-.447.998-.998v-.208a5.534 5.534 0 00-5.528-5.528H34.04V36.97h11.949c2.212 0 4.01-1.8 4.01-4.01V6.067a4.015 4.015 0 00-4.01-4.01zm-9.997 41.148a3.54 3.54 0 013.444 2.743H10.563a3.539 3.539 0 013.444-2.743h21.986zM17.955 41.21v-4.24h14.09v4.24h-14.09zm30.05-8.25a2.018 2.018 0 01-2.016 2.015H4.011a2.018 2.018 0 01-2.016-2.016V6.07c0-1.112.904-2.017 2.016-2.017h41.978c1.112 0 2.016.905 2.016 2.016V32.96z"/>
  <path  d="M44.327 7.045H5.673a.998.998 0 00-.997.997v22.943c0 .55.446.998.997.998h38.654c.55 0 .997-.447.997-.998V8.042a.997.997 0 00-.997-.997zm-.998 22.942H6.671V9.04h36.658v20.948z"/>
  <path  d="M25.12 24.95a.998.998 0 001.693.561l1.675-1.675 3.615 3.615a.995.995 0 001.41 0l2.822-2.821a.997.997 0 000-1.411l-3.615-3.615 1.675-1.675a.998.998 0 00-.56-1.692l-8.89-1.307a.998.998 0 00-1.132 1.132l1.308 8.889zm6.46-7.028l-.976.977a.997.997 0 000 1.41l3.615 3.615-1.41 1.411-3.616-3.615a.994.994 0 00-1.41 0l-.977.977-.824-5.598 5.599.823zM19.731 15.959a.994.994 0 001.41 0 .997.997 0 000-1.411l-2.243-2.245a.998.998 0 00-1.411 1.411l2.244 2.245zM17.444 19.742h2.868a.997.997 0 100-1.995h-2.868a.998.998 0 000 1.995zM19.606 21.593L17.3 23.899a.997.997 0 101.41 1.411l2.307-2.307a.997.997 0 10-1.41-1.41z"/>
</svg>
