<svg xmlns="http://www.w3.org/2000/svg" width="50" height="50" fill="currentColor" viewBox="0 0 50 50">
  <g clip-path="url(#prefix__clip0_148_157)">
    <path d="M26.212 12.655a1.27 1.27 0 00-1.27 1.27v2.442a1.27 1.27 0 102.54 0v-2.442a1.27 1.27 0 00-1.27-1.27zM26.212 39.561a1.27 1.27 0 00-1.27 1.27v2.442a1.27 1.27 0 102.54 0v-2.442a1.27 1.27 0 00-1.27-1.27zM40.885 27.329h-2.442a1.27 1.27 0 000 2.54h2.442a1.27 1.27 0 000-2.54zM37.526 38.117a1.216 1.216 0 00-.04-.04l-1.728-1.728a1.27 1.27 0 10-1.795 1.796l1.727 1.727a1.27 1.27 0 001.836-1.755zM36.766 17.969a1.27 1.27 0 00-1.723.005l-6.74 6.74a4.418 4.418 0 00-6.514 3.89l.002-.005a4.42 4.42 0 108.311-2.096l6.74-6.74a1.27 1.27 0 00-.076-1.794zm-10.554 12.51a1.88 1.88 0 110-3.761 1.88 1.88 0 010 3.76z"/>
    <path d="M46.276 13.036a1.27 1.27 0 101.795-1.796l-4.501-4.5a1.27 1.27 0 00-1.795 1.795l1.358 1.36-2.697 2.696A21.232 21.232 0 0027.483 7.22v-4.68h4.483a1.27 1.27 0 100-2.539H20.458a1.27 1.27 0 000 2.54h4.484v4.68a21.257 21.257 0 00-13.871 6.235 1.27 1.27 0 001.795 1.795c7.372-7.371 19.323-7.371 26.694 0 7.36 7.36 7.36 19.334 0 26.694-7.36 7.36-19.334 7.36-26.694 0a1.27 1.27 0 00-1.795 1.795c8.37 8.357 21.928 8.347 30.285-.023 7.998-8.01 8.381-20.86.876-29.331l2.698-2.698 1.346 1.349z"/>
    <path d="M14.452 19.185H2.806a1.27 1.27 0 100 2.54h11.646a1.27 1.27 0 100-2.54zM17.411 27.329H5.765a1.27 1.27 0 100 2.54H17.41a1.27 1.27 0 100-2.54zM14.452 35.471H2.806a1.27 1.27 0 100 2.54h11.646a1.27 1.27 0 100-2.54z"/>
  </g>
  <defs>
    <clipPath id="prefix__clip0_148_157">
      <path fill="#fff" d="M0 0h50v50H0z"/>
    </clipPath>
  </defs>
</svg>
