<svg xmlns="http://www.w3.org/2000/svg" width="50" height="50" fill="currentColor" viewBox="0 0 50 50">
  <g clip-path="url(#prefix__clip0_148_200)">
    <path d="M49.535 15.795L25.572.17a1.042 1.042 0 00-1.139 0L.475 15.795a1.042 1.042 0 001.139 1.743l2.553-1.666v31.003A3.125 3.125 0 007.292 50h35.424a3.125 3.125 0 003.125-3.125V15.872c.404.193 2.687 1.942 3.125 1.836a1.048 1.048 0 00.57-1.913zM36.465 47.917H34.38v-7.292a1.042 1.042 0 00-1.041-1.042h-3.13v-7.291a1.042 1.042 0 00-1.042-1.042h-8.334a1.042 1.042 0 00-1.041 1.042v7.291h-3.125a1.042 1.042 0 00-1.042 1.042v7.292h-2.083v-18.75h22.916l.006 18.75zm-14.589-8.334v-6.25h6.25v6.25h-6.25zm-4.167 2.084h6.25v6.25h-6.25v-6.25zm8.334 6.25v-6.25h6.25v6.25h-6.25zm17.708-1.042a1.042 1.042 0 01-1.042 1.042h-4.166V28.125a1.042 1.042 0 00-1.042-1.042h-25a1.042 1.042 0 00-1.042 1.042v19.792H7.292a1.042 1.042 0 01-1.042-1.042V14.514L25 2.285l18.75 12.229v32.361zM33.333 20.833a1.041 1.041 0 01-1.041 1.042H17.708a1.042 1.042 0 110-2.083h14.584a1.04 1.04 0 011.047 1.041h-.006zm-15.625-6.25h14.584a1.042 1.042 0 010 2.084H17.708a1.042 1.042 0 010-2.084z"/>
  </g>
  <defs>
    <clipPath id="prefix__clip0_148_200">
      <path fill="#fff" d="M0 0h50v50H0z"/>
    </clipPath>
  </defs>
</svg>
