<svg xmlns="http://www.w3.org/2000/svg" width="20" height="20" fill="none" viewBox="0 0 20 20">
  <g fill="currentColor" clip-path="url(#prefix__clip0_335_954)">
    <path d="M19.209 4.413L10.129.029a.293.293 0 00-.256 0L.793 4.413a.293.293 0 00-.166.264v10.646c0 .113.064.215.166.264l9.08 4.384a.293.293 0 00.255 0l9.08-4.384a.293.293 0 00.167-.264V4.677a.293.293 0 00-.166-.264zM10 .618l8.407 4.059-2.437 1.176a.289.289 0 00-.05-.031l-8.35-4.03 2.43-1.174zM6.91 2.122l8.394 4.053-1.72.83-8.39-4.05 1.716-.833zm8.59 4.609v3.068l-1.605.775V7.506l1.606-.775zm3.288 8.408l-8.494 4.101V9.244l2.026-.978a.293.293 0 10-.255-.527l-2.064.996-.813-.392a.293.293 0 10-.254.528l.774.373v9.996l-8.495-4.1V5.143l6.469 3.122a.292.292 0 00.39-.136.293.293 0 00-.136-.391L1.594 4.677l2.91-1.405 8.8 4.248.005.005v3.516a.293.293 0 00.42.264l2.192-1.058a.293.293 0 00.166-.264V6.448l2.701-1.304v9.995z"/>
    <path d="M3.63 14.003l-1.333-.643a.293.293 0 10-.254.527l1.332.644a.29.29 0 00.391-.137.293.293 0 00-.136-.39zM4.857 13.205L2.299 11.97a.293.293 0 00-.254.528l2.557 1.235a.292.292 0 00.391-.137.293.293 0 00-.136-.391z"/>
  </g>
  <defs>
    <clipPath id="prefix__clip0_335_954">
      <path fill="#fff" d="M0 0h20v20H0z"/>
    </clipPath>
  </defs>
</svg>
