<svg xmlns="http://www.w3.org/2000/svg" width="15" height="15" fill="currentColor" viewBox="0 0 15 15">
  <path d="M14.092 13.682V1.318A1.32 1.32 0 0012.773 0H2.227A1.32 1.32 0 00.908 1.318v12.364A1.32 1.32 0 002.227 15h10.546a1.32 1.32 0 001.319-1.318zm-.88 0a.44.44 0 01-.439.44H2.227a.44.44 0 01-.44-.44V1.318a.44.44 0 01.44-.44h10.546a.44.44 0 01.44.44v12.364z"/>
  <path d="M11.895 1.758h-8.79a.44.44 0 00-.439.44v1.757c0 .243.197.44.44.44h8.789a.44.44 0 00.439-.44V2.197a.44.44 0 00-.44-.44zm-.44 1.758h-7.91v-.88h7.91v.88zM11.895 5.273h-.88a.44.44 0 100 .88h.88a.44.44 0 100-.88zM9.258 5.273h-.88a.44.44 0 100 .88h.88a.44.44 0 100-.88zM4.863 7.031H3.105a.44.44 0 00-.439.44v1.787c0 .243.197.44.44.44h1.757a.44.44 0 00.44-.44V7.47a.44.44 0 00-.44-.44zm-.44 1.787h-.878V7.91h.879v.908zM8.379 7.031H6.62a.44.44 0 00-.44.44v1.787c0 .243.197.44.44.44H8.38a.44.44 0 00.44-.44V7.47a.44.44 0 00-.44-.44zm-.44 1.787h-.878V7.91h.878v.908zM4.863 10.576H3.105a.44.44 0 00-.439.44v1.757c0 .243.197.44.44.44h1.757a.44.44 0 00.44-.44v-1.757a.44.44 0 00-.44-.44zm-.44 1.758h-.878v-.879h.879v.879zM8.379 10.576H6.62a.44.44 0 00-.44.44v1.757c0 .243.197.44.44.44H8.38a.44.44 0 00.44-.44v-1.757a.44.44 0 00-.44-.44zm-.44 1.758h-.878v-.879h.878v.879zM11.895 7.031h-1.758a.44.44 0 00-.44.44v5.302c0 .243.197.44.44.44h1.758a.44.44 0 00.439-.44V7.471a.44.44 0 00-.44-.44zm-.44 5.303h-.879V7.91h.88v4.424z"/>
</svg>
