<svg xmlns="http://www.w3.org/2000/svg" width="15" height="15" fill="currentColor" viewBox="0 0 15 15">
  <path d="M14.17 6.245a1.472 1.472 0 00-.928-.194v-.309C13.242 2.584 10.658 0 7.5 0S1.758 2.584 1.758 5.742v.31a1.471 1.471 0 00-.927.193C.28 6.585 0 7.304 0 8.379c0 1.077.28 1.799.832 2.145.275.172.595.232.926.204v.317c0 .243.197.44.44.44h1.757a.44.44 0 00.44-.44V5.742a.44.44 0 00-.44-.44H2.657A4.87 4.87 0 017.5.88a4.87 4.87 0 014.843 4.424h-1.298a.44.44 0 00-.44.44v5.302c0 .243.197.44.44.44h1.318v.439a1.32 1.32 0 01-1.318 1.318H9.622a1.32 1.32 0 00-1.243-.879H7.5a1.32 1.32 0 00-1.318 1.319A1.32 1.32 0 007.5 15h.879a1.32 1.32 0 001.243-.879h1.423a2.2 2.2 0 002.197-2.197v-1.196c.33.028.651-.032.925-.204.553-.346.833-1.068.833-2.145 0-1.075-.28-1.793-.83-2.134zM1.757 9.843c-.14.025-.316.026-.458-.063-.272-.17-.421-.668-.421-1.401 0-.726.146-1.218.411-1.385.143-.09.324-.083.468-.055v2.904zm1.758-3.661v4.423h-.88V6.182h.88zm4.863 7.94H7.5a.44.44 0 010-.88h.879a.44.44 0 010 .88zm3.984-3.517h-.879V6.182h.88v4.423zm1.34-.827c-.141.09-.319.089-.46.064V6.939c.143-.028.323-.035.467.055.265.167.411.659.411 1.385 0 .73-.148 1.227-.417 1.399z"/>
</svg>
