<svg xmlns="http://www.w3.org/2000/svg" width="20" height="20" fill="none" viewBox="0 0 20 20">
  <g fill="currentColor">
    <path d="M7.46 6.923h7.82a.293.293 0 100-.586H7.46a.293.293 0 000 .586zM7.46 9.095h7.82a.293.293 0 100-.586H7.46a.293.293 0 000 .586zM7.46 11.266h7.82a.293.293 0 000-.586H7.46a.293.293 0 000 .586z"/>
    <path d="M18.153 3.75a.295.295 0 00-.085-.196L14.6.086A.297.297 0 0014.393 0H5.736a1.15 1.15 0 00-1.15 1.149v.22h-.22a1.15 1.15 0 00-1.142 1.028h-.227a1.15 1.15 0 00-1.15 1.149v9.848a.293.293 0 00.587 0V3.546c0-.31.252-.563.563-.563h.22v14.84a1.15 1.15 0 001.15 1.15h7.452a.293.293 0 000-.586H4.366a.564.564 0 01-.563-.563V2.519c0-.31.253-.563.563-.563h.22V3.55a.293.293 0 00.587 0V1.15c0-.31.252-.563.563-.563H14.1v2.319a1.15 1.15 0 001.149 1.149h2.318v12.4c0 .31-.252.563-.563.563H5.736a.564.564 0 01-.563-.563V4.828a.293.293 0 00-.586 0v11.626a1.15 1.15 0 001.149 1.15h10.462v.22c0 .31-.253.563-.563.563h-2.54a.293.293 0 100 .586h1.72a.564.564 0 01-.55.441H2.997a.564.564 0 01-.563-.563v-4.18a.293.293 0 00-.586 0v4.18A1.15 1.15 0 002.997 20h11.268a1.15 1.15 0 001.143-1.027h.227a1.15 1.15 0 001.149-1.15v-.22h.22a1.15 1.15 0 001.15-1.149V3.761l-.001-.01zm-2.904-.282a.564.564 0 01-.563-.563V1l2.467 2.468H15.25z"/>
  </g>
</svg>
