<svg xmlns="http://www.w3.org/2000/svg" width="15" height="15" viewBox="0 0 15 15">
  <path d="M13.567 0H1.433A.7.7 0 00.86 1.102l4.63 6.302c.108.156.165.34.165.53v6.325a.74.74 0 001.184.593l2.055-1.55c.283-.21.453-.547.453-.9V7.934c0-.19.057-.374.165-.53l4.63-6.302A.7.7 0 0013.567 0zM8.799 6.888c-.199.271-.332.65-.332 1.046v4.468c0 .077-.037.15-.098.195-.055.04.355-.268-1.836 1.383V7.934c0-.373-.113-.732-.326-1.038L3.185 2.783h8.63L8.799 6.888zm3.662-4.984H2.54L1.786.88h11.428l-.754 1.025z"/>
</svg>
