<svg xmlns="http://www.w3.org/2000/svg" width="24" height="24" viewBox="0 0 24 24" fill="currentColor">
  <path d="M17.25 1.851A6.568 6.568 0 0012 4.558a6.568 6.568 0 00-5.25-2.707A7.035 7.035 0 000 9.126c0 4.552 4.674 9.425 8.6 12.712a5.29 5.29 0 006.809 0c3.922-3.287 8.6-8.16 8.6-12.712a7.035 7.035 0 00-6.759-7.275zm-3.773 17.688a2.294 2.294 0 01-2.955 0C5.742 15.531 3 11.736 3 9.126a4.043 4.043 0 013.75-4.275 4.043 4.043 0 013.75 4.275 1.5 1.5 0 003 0 4.043 4.043 0 013.75-4.275A4.043 4.043 0 0121 9.126c0 2.61-2.742 6.405-7.523 10.413z"/>
</svg>
