<svg xmlns="http://www.w3.org/2000/svg" width="18" height="18" fill="currentColor" viewBox="0 0 18 18">
  <g clip-path="url(#prefix__clip0_705_54)">
    <path d="M12.797 1.125A5.212 5.212 0 009 2.773a5.203 5.203 0 00-9 3.555c0 5.18 8.356 10.266 8.719 10.465a.562.562 0 00.58 0C9.643 16.593 18 11.51 18 6.328a5.209 5.209 0 00-5.203-5.203zM9 15.649c-1.454-.928-7.875-5.265-7.875-9.32a4.078 4.078 0 017.414-2.344.562.562 0 00.92 0 4.078 4.078 0 017.416 2.343c0 4.053-6.42 8.39-7.875 9.32z"/>
  </g>
  <defs>
    <clipPath id="prefix__clip0_705_54">
      <path fill="#fff" d="M0 0h18v18H0z"/>
    </clipPath>
  </defs>
</svg>
