<svg xmlns="http://www.w3.org/2000/svg" viewBox="0 0 16 16" width="16" height="16" fill="currentColor">
  <path d="M8 4.67a.67.67 0 10.67.66.67.67 0 00-.67-.66zM8.67 7.33a.67.67 0 00-1.34 0v4a.67.67 0 001.34 0z"/>
  <path fill-rule="evenodd" d="M0 8c0 6.59 1.41 8 8 8s8-1.41 8-8-1.41-8-8-8-8 1.41-8 8zm1.33 0a17.41 17.41 0 00.3 3.74 3.55 3.55 0 00.84 1.79 3.55 3.55 0 001.79.84 17.41 17.41 0 003.74.3 17.41 17.41 0 003.74-.3 3.55 3.55 0 001.79-.84 3.55 3.55 0 00.84-1.79 17.41 17.41 0 00.3-3.74 17.41 17.41 0 00-.3-3.74 3.55 3.55 0 00-.84-1.79 3.55 3.55 0 00-1.79-.84A17.41 17.41 0 008 1.33a17.41 17.41 0 00-3.74.3 3.55 3.55 0 00-1.79.84 3.55 3.55 0 00-.84 1.79A17.41 17.41 0 001.33 8z"/>
</svg>
