<svg xmlns="http://www.w3.org/2000/svg" width="64" height="64" fill="currentColor" viewBox="0 0 64 64">
  <path d="M2 8h60c1.109 0 2-.891 2-2s-.891-2-2-2H2C.891 4 0 4.891 0 6s.891 2 2 2zM46 44h16c1.109 0 2-.891 2-2s-.891-2-2-2H46c-1.109 0-2 .891-2 2s.891 2 2 2zM46 32h16c1.109 0 2-.891 2-2s-.891-2-2-2H46c-1.109 0-2 .891-2 2s.891 2 2 2zM40 20h22c1.109 0 2-.891 2-2s-.891-2-2-2H40c-1.109 0-2 .891-2 2s.891 2 2 2zM16 46c8.823 0 16-7.177 16-16s-7.177-16-16-16S0 21.177 0 30s7.177 16 16 16zm0-28c6.617 0 12 5.383 12 12s-5.383 12-12 12S4 36.617 4 30s5.383-12 12-12z"/>
  <path d="M44 60c.514 0 1.029-.194 1.417-.583a2 2 0 000-2.823l-18-18a2 2 0 00-2.823 0 2 2 0 000 2.823l17.989 18c.388.389.903.583 1.417.583z"/>
</svg>
