<svg xmlns="http://www.w3.org/2000/svg" width="166" height="34" fill="currentColor" viewBox="0 0 166 34">
  <g clip-path="url(#prefix__clip0_209_1233)">
    <path d="M10.868 0c1.52-.022 3.025.279 4.416.88a10.598 10.598 0 013.646 2.606l-3.362 3.061a6.803 6.803 0 00-4.7-1.753 5.489 5.489 0 00-2.208.402c-.699.284-1.33.71-1.851 1.248a5.856 5.856 0 00-1.252 1.98 5.783 5.783 0 00-.37 2.301c-.035.781.091 1.56.37 2.293a5.809 5.809 0 001.252 1.968 5.452 5.452 0 001.856 1.23c.699.28 1.449.414 2.203.393a6.805 6.805 0 004.7-1.713l3.362 3.062a10.578 10.578 0 01-3.645 2.608 10.735 10.735 0 01-4.417.879 10.596 10.596 0 01-4.16-.789 10.452 10.452 0 01-3.499-2.348 10.364 10.364 0 01-2.4-3.466 10.223 10.223 0 01-.81-4.117c-.023-1.41.246-2.811.792-4.116a10.363 10.363 0 012.383-3.473A10.453 10.453 0 016.69.781a10.595 10.595 0 014.178-.782zM32.396 5.014v16.219h-5.194V5.013h-5.465V.22h16.125v4.795h-5.466zM47.345 8.288h8.62v4.835h-8.62v3.274h9.441v4.836H42.165V.213h14.621v4.794h-9.44v3.28zM74.868 21.233l-4.428-6.815a3.623 3.623 0 00-.982-1.069 2.342 2.342 0 00-1.225-.28h-1.184v8.164h-5.194V.213h5.194v7.924h1.128a2.35 2.35 0 001.253-.28c.396-.287.728-.65.975-1.07L74.68.213h5.834l-5.221 8.076a10.04 10.04 0 01-2.228 2.226 6.894 6.894 0 012.255 2.404l5.403 8.315h-5.855zM93.458 9.548l-4.456 11.685H83.23L91.961.213h3.12l8.605 21.02h-5.772L93.458 9.548zM108.448 3.137A10.995 10.995 0 01116.152 0c2.889 0 5.66 1.128 7.704 3.136a10.366 10.366 0 012.392 3.47c.548 1.305.819 2.707.797 4.119.021 1.41-.25 2.811-.799 4.115a10.352 10.352 0 01-2.39 3.467 10.995 10.995 0 01-7.704 3.136c-2.889 0-5.66-1.128-7.704-3.136a10.357 10.357 0 01-2.382-3.47 10.213 10.213 0 01-.793-4.112c-.024-1.411.246-2.812.792-4.117a10.367 10.367 0 012.383-3.472zm11.773 3.308a5.476 5.476 0 00-1.863-1.248 5.55 5.55 0 00-2.217-.403 5.49 5.49 0 00-2.2.405 5.418 5.418 0 00-1.845 1.246 5.868 5.868 0 00-1.249 1.98 5.775 5.775 0 00-.366 2.3 5.712 5.712 0 00.362 2.3A5.788 5.788 0 00112.096 15a5.951 5.951 0 004.077 1.61 5.947 5.947 0 004.076-1.61 5.77 5.77 0 001.242-1.977 5.715 5.715 0 00.353-2.297 5.765 5.765 0 00-.369-2.303 5.834 5.834 0 00-1.254-1.978zM146.554 21.233h-16.355v-3.09l8.487-6.849c1.643-1.26 2.472-2.404 2.472-3.424a2.446 2.446 0 00-.752-1.911 3.122 3.122 0 00-1.998-.733h-.154c-.998 0-2.432.685-4.302 2.055l-3.356-3.069c2.822-2.525 5.525-3.79 8.111-3.794h.181a8.698 8.698 0 014.177.993 5.916 5.916 0 012.451 2.356c.488.934.739 1.97.731 3.02a7.055 7.055 0 01-1.462 4.268 22.097 22.097 0 01-4.4 4.205l-1.434 1.178h7.603v4.795zM164.106 18.322v2.91h-5.187v-2.91h-9.587V15.26L160.994.685h3.112v12.801H166v4.836h-1.894zm-5.187-9.493l-3.606 4.657h3.606V8.83zM124.789 33.925h-.857v-5.843l-2.785 3.52-2.785-3.52v5.829h-.842v-7.404h.473l3.154 3.986 3.175-3.986h.474l-.007 7.418zM127.859 27.541a3.906 3.906 0 014.873-.45 3.798 3.798 0 011.539 2.06 3.74 3.74 0 01-.139 2.553 3.817 3.817 0 01-1.754 1.886 3.915 3.915 0 01-2.573.364 3.87 3.87 0 01-2.223-1.324 3.756 3.756 0 01-.864-2.41c-.007-.5.091-.996.288-1.457.196-.46.487-.876.853-1.222zm4.874.527a2.942 2.942 0 00-2.137-.863 2.918 2.918 0 00-1.135.221 2.881 2.881 0 00-.954.643 3.097 3.097 0 00-.869 2.147c0 .799.311 1.567.869 2.147.271.276.595.494.954.642.359.149.745.224 1.135.221a2.939 2.939 0 002.137-.863c.558-.58.87-1.348.87-2.147 0-.799-.312-1.567-.87-2.148zM139.752 26.431a3.751 3.751 0 011.559.313c.49.214.928.53 1.281.927l-.55.486a3.131 3.131 0 00-2.29-.952 2.917 2.917 0 00-1.159.22c-.367.15-.698.374-.972.657a3.097 3.097 0 00-.869 2.148c0 .798.311 1.567.869 2.147a2.913 2.913 0 002.131.863c.428.008.854-.074 1.247-.24a3.014 3.014 0 001.036-.726l.55.507a3.853 3.853 0 01-1.962 1.128 3.904 3.904 0 01-2.268-.16 3.836 3.836 0 01-1.779-1.392 3.747 3.747 0 01-.668-2.138 3.739 3.739 0 011.117-2.68c.357-.351.78-.63 1.247-.82.467-.191.967-.288 1.473-.288h.007zM149.492 33.925l-1.532-2.35a4.017 4.017 0 00-.696-.828 1.25 1.25 0 00-.794-.2h-1.225v3.378h-.843v-7.418h.843v3.253h1.107c.28.025.56-.045.794-.198.272-.241.506-.52.696-.83l1.455-2.225h.961l-1.664 2.513a8.632 8.632 0 01-.571.76c-.123.142-.272.258-.439.343.202.067.382.185.522.343.224.258.426.533.606.822l1.734 2.637h-.954zM152.159 26.507h2.743c1.666 0 2.499.637 2.499 1.91.032.359-.065.716-.274 1.012-.208.295-.515.51-.867.605.442.063.845.286 1.13.625.285.34.43.771.408 1.21 0 1.37-.877 2.056-2.632 2.056h-3.007v-7.418zm.842.774v2.445h1.971c1.086 0 1.629-.404 1.629-1.22a1.19 1.19 0 00-.341-.89 1.833 1.833 0 00-1.288-.335h-1.971zm0 3.157v2.74h2.319c1.121 0 1.678-.452 1.678-1.37a1.236 1.236 0 00-.418-.986 1.867 1.867 0 00-1.26-.37l-2.319-.014zM160.569 31.959l-.821 1.966h-.926l3.126-7.418h.473l3.113 7.418h-.926l-.822-1.966h-3.217zm1.616-3.925l-1.316 3.15h2.632l-1.316-3.15z"/>
  </g>
  <defs>
    <clipPath id="prefix__clip0_209_1233">
      <path fill="#fff" d="M0 0h166v34H0z"/>
    </clipPath>
  </defs>
</svg>
