<svg xmlns="http://www.w3.org/2000/svg" width="20" height="20" fill="currentColor" viewBox="0 0 20 20">
  <path d="M10 20c5.514 0 10-4.486 10-10S15.514 0 10 0 0 4.486 0 10s4.486 10 10 10zm0-18.571c4.729 0 8.571 3.842 8.571 8.571 0 4.729-3.842 8.571-8.571 8.571-4.729 0-8.571-3.842-8.571-8.571 0-4.729 3.842-8.571 8.571-8.571z"/>
  <path d="M8.47 7.143h4.591a.714.714 0 100-1.429H8.47a.714.714 0 100 1.429zm-2.041 7.143h7.142a.714.714 0 100-1.429H6.43a.714.714 0 100 1.429zm0-3.572h7.142a.714.714 0 100-1.428H6.43a.714.714 0 100 1.428z"/>
</svg>
