<svg xmlns="http://www.w3.org/2000/svg" width="15" height="15" fill="currentColor" viewBox="0 0 15 15">
  <path d="M14.56 3.545h-3.34V.938a.44.44 0 00-.439-.44H.44A.44.44 0 000 .938v11.367a2.2 2.2 0 002.197 2.197h10.606A2.2 2.2 0 0015 12.305v-8.32a.44.44 0 00-.44-.44zM2.197 13.623A1.32 1.32 0 01.88 12.305V1.377h9.463c0 11.615-.006 10.97.01 11.135.038.407.19.792.43 1.111H2.197zm11.924-1.318a1.32 1.32 0 01-1.318 1.318h-.264a1.32 1.32 0 01-1.318-1.318V4.424h2.9v7.88z"/>
  <path d="M8.906 2.607H2.344a.44.44 0 000 .88h6.562a.44.44 0 000-.88zM8.906 4.482H2.344a.44.44 0 000 .88h6.562a.44.44 0 000-.88zM8.906 11.514H2.344a.44.44 0 100 .879h6.562a.44.44 0 000-.88zM8.906 6.357H5.625a.44.44 0 00-.44.44v3.281c0 .243.197.44.44.44h3.281a.44.44 0 00.44-.44V6.797a.44.44 0 00-.44-.44zm-.44 3.282H6.065V7.236h2.403V9.64zM2.344 7.94H3.75a.44.44 0 000-.88H2.344a.44.44 0 000 .88zM2.344 9.814H3.75a.44.44 0 000-.878H2.344a.44.44 0 000 .878z"/>
</svg>
