<svg xmlns="http://www.w3.org/2000/svg" viewBox="0 0 18 18" width="18" height="18" fill="currentColor" >
<path d="M9 0.875C4.52 0.875 0.875 4.52 0.875 9C0.875 13.48 4.52 17.125 9 17.125C13.48 17.125 17.125 13.48 17.125 9C17.125 4.52 13.48 0.875 9 0.875ZM9 13.375C8.65438 13.375 8.375 13.095 8.375 12.75C8.375 12.405 8.65438 12.125 9 12.125C9.34562 12.125 9.625 12.405 9.625 12.75C9.625 13.095 9.34562 13.375 9 13.375ZM9.625 9.54625V10.25C9.625 10.595 9.34562 10.875 9 10.875C8.65438 10.875 8.375 10.595 8.375 10.25V9C8.375 8.655 8.65438 8.375 9 8.375C9.68937 8.375 10.25 7.81437 10.25 7.125C10.25 6.43563 9.68937 5.875 9 5.875C8.31063 5.875 7.75 6.43563 7.75 7.125C7.75 7.47 7.47062 7.75 7.125 7.75C6.77938 7.75 6.5 7.47 6.5 7.125C6.5 5.74625 7.62125 4.625 9 4.625C10.3787 4.625 11.5 5.74625 11.5 7.125C11.5 8.2875 10.7025 9.2675 9.625 9.54625Z" />
</svg>
