<svg xmlns="http://www.w3.org/2000/svg" width="15" height="15" fill="currentColor" viewBox="0 0 15 15">
  <path d="M14.906 3.934l-3.84-3.84a.32.32 0 00-.453 0L.094 10.614a.32.32 0 000 .452l3.84 3.84a.32.32 0 00.453 0l10.519-10.52a.32.32 0 000-.452zM4.158 14.224L.775 10.842 3.317 8.3 4.47 9.454a.317.317 0 00.453.006.317.317 0 00.007-.453L4.923 9 3.77 7.85l.838-.838 1.8 1.799c.125.125.33.125.453-.003a.32.32 0 000-.453l-1.8-1.8.839-.838 1.153 1.15a.32.32 0 10.453-.453l-1.153-1.15.839-.839 1.799 1.8a.32.32 0 10.453-.454l-1.8-1.799.84-.838 1.153 1.153a.32.32 0 10.456-.45l-.003-.003L8.946 2.67l.838-.839 1.8 1.8a.32.32 0 10.453-.454l-1.8-1.799.604-.604 3.384 3.383L4.158 14.225z"/>
  <path d="M4.412 10.646a1.033 1.033 0 00-1.458 0 1.034 1.034 0 000 1.458 1.034 1.034 0 001.458 0 1.034 1.034 0 000-1.458zm-.42.995c-.007.007-.017.017-.036.013a.394.394 0 01-.553 0 .394.394 0 010-.552.394.394 0 01.553 0 .38.38 0 01.035.54z"/>
</svg>
