<svg xmlns="http://www.w3.org/2000/svg" width="18" height="18" fill="currentColor" viewBox="0 0 18 18">
  <path d="M17.97 9.15l-.016.007-2.582-6.427h1.178a.383.383 0 000-.766h-7.2V.86a.383.383 0 00-.765 0V1.96H1.389a.383.383 0 000 .765h1.228L.03 9.149A.383.383 0 000 9.291a3.181 3.181 0 006.362 0 .383.383 0 00-.03-.142L3.749 2.722h4.836v11.83c-1.825.137-3.252 1.246-3.252 2.59 0 .21.171.382.383.382h6.503a.383.383 0 00.383-.383c0-1.343-1.427-2.452-3.252-2.59V2.722h4.886l-2.568 6.427a.383.383 0 00-.03.142 3.181 3.181 0 006.362 0 .383.383 0 00-.03-.142zM3.18 11.711A2.418 2.418 0 01.795 9.681h4.751a2.418 2.418 0 01-2.368 2.031zm2.23-2.796H.956l2.23-5.551 2.224 5.55zm6.358 7.843H6.163c.283-.823 1.45-1.458 2.8-1.458 1.351 0 2.522.635 2.805 1.458zm3.034-13.39l2.222 5.547h-4.453l2.23-5.547zm0 8.343v.004a2.418 2.418 0 01-2.368-2.035h4.751a2.418 2.418 0 01-2.383 2.031z"/>
</svg>
