<svg xmlns="http://www.w3.org/2000/svg" width="20" height="20" fill="none" viewBox="0 0 20 20">
  <g fill="currentColor" clip-path="url(#prefix__clip0_335_882)">
    <path d="M15.158 14.861a2.333 2.333 0 00-2.336 2.336 2.333 2.333 0 002.336 2.335 2.333 2.333 0 002.335-2.335c-.023-1.28-1.055-2.336-2.335-2.336zM19.266 3.724c-.045 0-.112-.023-.18-.023H4.94l-.225-1.504A2.01 2.01 0 002.717.468H.898A.9.9 0 000 1.366a.9.9 0 00.898.898h1.819c.112 0 .202.09.225.202l1.392 9.476a2.462 2.462 0 002.425 2.089H16.1c1.168 0 2.178-.831 2.425-1.976l1.46-7.298a.888.888 0 00-.719-1.033zM9.43 17.084a2.322 2.322 0 00-2.312-2.223 2.349 2.349 0 00-2.245 2.425 2.302 2.302 0 002.29 2.223h.045c1.28-.067 2.29-1.145 2.223-2.425z"/>
  </g>
  <defs>
    <clipPath id="prefix__clip0_335_882">
      <path fill="#fff" d="M0 0h20v20H0z"/>
    </clipPath>
  </defs>
</svg>
