<svg xmlns="http://www.w3.org/2000/svg" width="20" height="20" fill="none" viewBox="0 0 20 20">
  <g fill="currentColor" clip-path="url(#prefix__clip0_335_979)">
    <path d="M6.738 17.07c-.807 0-1.465.657-1.465 1.465S5.931 20 6.738 20c.808 0 1.465-.657 1.465-1.465s-.657-1.465-1.465-1.465zm0 2.344a.88.88 0 010-1.758.88.88 0 010 1.758z"/>
    <path d="M6.738 18.828a.293.293 0 100-.586.293.293 0 000 .586zM16.777 18.828a.293.293 0 100-.586.293.293 0 000 .586z"/>
    <path d="M16.777 17.07c-.807 0-1.465.657-1.465 1.465S15.97 20 16.777 20c.808 0 1.465-.657 1.465-1.465s-.657-1.465-1.465-1.465zm0 2.344a.88.88 0 010-1.758.88.88 0 010 1.758zM4.838 14.178l2.132-1.21h4.788c.707 0 1.3-.503 1.435-1.171h3.051a2.05 2.05 0 001.987-1.543l1.76-6.88a.293.293 0 00-.284-.366H5.323l-.15-.584A3.22 3.22 0 002.051 0H.879a.88.88 0 000 1.758H2.05c.67 0 1.254.453 1.42 1.1l2.25 8.799-1.75.992a2.055 2.055 0 00-1.041 1.785c0 1.13.92 2.05 2.05 2.05h12.97a.88.88 0 000-1.757H4.98a.293.293 0 01-.142-.55zm10.859-5.701h-1.8l.11-2.149h2.02l-.33 2.149zm.922-2.149h2.012l-.55 2.149H16.29l.33-2.149zm-1.012 2.734l-.33 2.149h-1.52l.11-2.149h1.74zm-2.297-.585h-1.803l-.11-2.149h2.023l-.11 2.149zm.726-2.735l.11-2.148h2.3l-.33 2.148h-2.08zm-.586 0h-2.083l-.11-2.148h2.303l-.11 2.148zm-2.67 0H9.62a.293.293 0 100 .586h1.19l.11 2.149h-1.8l-.75-4.883h2.3l.11 2.148zM8.527 8.477H6.72l-.55-2.149h2.026l.33 2.149zm.09.585l.33 2.149H7.42l-.55-2.149h1.746zm.922 2.149l-.33-2.149h1.74l.11 2.149H9.54zm2.107 0l-.11-2.149h1.744l-.11 2.149h-1.524zm6.018-1.102a1.464 1.464 0 01-1.42 1.102h-.374l.33-2.149h1.731l-.267 1.047zm1.116-4.367h-2.07l.329-2.148h2.29l-.549 2.148zM7.777 3.594l.33 2.148H6.022l-.55-2.148h2.305zM2.051 1.172H.879a.293.293 0 010-.586H2.05c.616 0 1.19.213 1.646.576l-.418.418a2.048 2.048 0 00-1.228-.408zm2.93 14.14h12.968a.293.293 0 010 .586H4.98a1.466 1.466 0 01-.72-2.74l1.944-1.102a.293.293 0 00.14-.327L4.038 2.713a2.043 2.043 0 00-.344-.72l.417-.418c.228.286.4.621.495.993l2.303 9.008c.034.13.15.22.284.22h5.393a.88.88 0 01-.828.586H6.893c-.05 0-.1.013-.145.038l-2.2 1.247a.88.88 0 00.432 1.644z"/>
  </g>
  <defs>
    <clipPath id="prefix__clip0_335_979">
      <path fill="#fff" d="M0 0h20v20H0z"/>
    </clipPath>
  </defs>
</svg>
