<svg xmlns="http://www.w3.org/2000/svg" width="18" height="18" fill="currentColor" viewBox="0 0 18 18">
  <path d="M6.363 15.328c0 .872.71 1.582 1.582 1.582.872 0 1.582-.71 1.582-1.582 0-.872-.71-1.582-1.582-1.582-.872 0-1.582.71-1.582 1.582zm1.582-.527a.528.528 0 11-.001 1.056.528.528 0 01.001-1.056zM11.672 15.328c0 .872.71 1.582 1.582 1.582.872 0 1.582-.71 1.582-1.582 0-.872-.71-1.582-1.582-1.582-.873 0-1.582.71-1.582 1.582zm1.582-.527a.528.528 0 11-.002 1.056.528.528 0 01.002-1.056z"/>
  <path d="M17.472 3.2H4.124l-.493-1.728a.527.527 0 00-.507-.382H.527a.527.527 0 000 1.055h2.2l2.545 8.912-.2.4a1.582 1.582 0 001.416 2.289h8.875a.527.527 0 100-1.055H6.488a.527.527 0 01-.472-.763l.146-.291h9.201a.527.527 0 00.507-.383l2.11-7.382a.528.528 0 00-.508-.673zm-2.507 7.382H6.234L4.426 4.254h12.347l-1.808 6.328z"/>
</svg>
