<svg xmlns="http://www.w3.org/2000/svg" width="15" height="15" fill="currentColor" viewBox="0 0 15 15">
  <path d="M7.5 15A7.503 7.503 0 010 7.5a7.45 7.45 0 012.197-5.303A7.45 7.45 0 017.5 0a7.45 7.45 0 015.303 2.197A7.45 7.45 0 0115 7.5a7.505 7.505 0 01-2.65 5.721A7.503 7.503 0 017.5 15zM7.5.937A6.57 6.57 0 00.937 7.5a6.567 6.567 0 002.32 5.006A6.564 6.564 0 0014.062 7.5 6.57 6.57 0 007.5.937z"/>
  <path d="M7.5 7.5a2.816 2.816 0 01-2.813-2.813A2.816 2.816 0 017.5 1.876a2.816 2.816 0 012.813 2.813A2.816 2.816 0 017.5 7.5zm0-4.688a1.877 1.877 0 00-1.875 1.876c0 1.033.841 1.875 1.875 1.875a1.877 1.877 0 001.875-1.875A1.877 1.877 0 007.5 2.813z"/>
  <path d="M12.047 13.332a.471.471 0 01-.455-.582 4.25 4.25 0 00.127-1.031A4.235 4.235 0 007.562 7.5h-.124a4.235 4.235 0 00-4.157 4.219c0 .349.043.695.127 1.03a.469.469 0 11-.91.229 5.174 5.174 0 01-.154-1.26c0-1.364.528-2.65 1.486-3.621a5.125 5.125 0 013.597-1.534h.139a5.125 5.125 0 013.604 1.534 5.126 5.126 0 011.486 3.622c0 .425-.052.849-.155 1.259a.469.469 0 01-.454.354z"/>
</svg>
