<svg xmlns="http://www.w3.org/2000/svg" width="20" height="20" fill="none" viewBox="0 0 20 20">
  <g clip-path="url(#prefix__clip0_39_505)">
    <path fill="url(#prefix__paint0_linear_39_505)" d="M1.25 1.36C-.322 2.994 0 4.728 0 9.997c0 4.375-.763 8.76 3.232 9.793 1.247.321 12.3.321 13.546-.002 1.664-.429 3.017-1.778 3.202-4.13.026-.329.026-10.988 0-11.323-.198-2.506-1.74-3.95-3.773-4.242-.465-.068-.559-.088-2.949-.092C4.781.004 2.923-.373 1.25 1.36z"/>
    <path fill="#fff" d="M9.998 2.616c-3.026 0-5.899-.27-6.996 2.547-.454 1.164-.388 2.674-.388 4.838 0 1.898-.06 3.682.388 4.837 1.095 2.818 3.991 2.548 6.995 2.548 2.897 0 5.885.302 6.995-2.548.455-1.175.388-2.664.388-4.837 0-2.885.16-4.748-1.24-6.146-1.417-1.417-3.333-1.24-6.145-1.24h.003zm-.661 1.33c6.311-.01 7.115-.711 6.671 9.037-.157 3.447-2.782 3.069-6.009 3.069-5.883 0-6.052-.169-6.052-6.055 0-5.954.466-6.047 5.39-6.052v.002zm4.603 1.226a.886.886 0 100 1.772.886.886 0 000-1.772zM9.998 6.208A3.792 3.792 0 1010 13.793a3.792 3.792 0 000-7.585zm0 1.331c3.254 0 3.259 4.924 0 4.924-3.253 0-3.258-4.924 0-4.924z"/>
  </g>
  <defs>
    <linearGradient id="prefix__paint0_linear_39_505" x1="1.288" x2="19.876" y1="18.723" y2="2.635" gradientUnits="userSpaceOnUse">
      <stop stop-color="#FD5"/>
      <stop offset=".5" stop-color="#FF543E"/>
      <stop offset="1" stop-color="#C837AB"/>
    </linearGradient>
    <clipPath id="prefix__clip0_39_505">
      <path fill="#fff" d="M0 0h20v20H0z"/>
    </clipPath>
  </defs>
</svg>
