<svg xmlns="http://www.w3.org/2000/svg" width="100" height="28.21" fill="none" viewBox="0 0 100 28.21">
  <defs>
    <clipPath id="prefix__a">
      <path fill="none" d="M0 0h100v28.21H0z"/>
    </clipPath>
    <clipPath id="prefix__b">
      <path fill="none" d="M70.51 0a14.1 14.1 0 0013.87 11.54h15.43a9.77 9.77 0 00.19-1.92A9.62 9.62 0 0090.38 0z"/>
    </clipPath>
    <linearGradient id="prefix__c" x1="-305.72" x2="-305.58" y1="114.03" y2="114.03" data-name="Безымянный градиент" gradientTransform="matrix(209.44 0 0 -209.44 64099.72 23887.82)" gradientUnits="userSpaceOnUse">
      <stop offset="0" stop-color="#5da5df"/>
      <stop offset=".01" stop-color="#5da5df"/>
      <stop offset=".35" stop-color="#599cd7"/>
      <stop offset=".91" stop-color="#4d83c3"/>
      <stop offset="1" stop-color="#4b7ebf"/>
    </linearGradient>
  </defs>
  <g fill="#63a960" clip-path="url(#prefix__a)">
    <path d="M55.68 3l-6.32 13.67h-.64V0h-9v28.2h7.62a5.13 5.13 0 004.66-3l6.32-13.69H59v16.7h9V0h-7.67a5.13 5.13 0 00-4.66 3M22 3.71l-3.74 13h-.64l-3.74-13A5.13 5.13 0 009 0H0v28.21h9V11.54h.64l5.13 16.67h6.41l5.13-16.67h.64v16.67h9V0h-9A5.13 5.13 0 0022 3.71m49.8 9.11v15.39h9v-9h9.63a9.61 9.61 0 009.06-6.41z"/>
  </g>
  <g clip-path="url(#prefix__b)">
    <path fill="url(#prefix__c)" d="M70.51 0H100v11.54H70.51z"/>
  </g>
</svg>
