<svg xmlns="http://www.w3.org/2000/svg" width="35.9" height="11.7" fill="none" viewBox="0 0 35.9 11.7">
  <defs>
    <path id="a" d="m10.6.2-3 7.7-1.2-6.5C6.3.7 5.7.2 5.1.2h-5L0 .6c1 .2 2 .5 2.9 1 .4.2.7.6.7 1l2.3 9H9L13.7.3 10.6.2zm4.3 0-2.4 11.3h2.9L17.8.2h-2.9zm16.6 3.1.9 4.2H30l1.5-4.2zM31.1.2c-.5 0-1 .3-1.2.8l-4.4 10.5h3l.6-1.7h3.8l.3 1.7h2.7L33.6.2h-2.5zM23.5 0c-2.9 0-4.9 1.5-4.9 3.7 0 1.6 1.4 2.5 2.5 3.1s1.5.9 1.5 1.4c0 .8-.9 1.1-1.7 1.1-1 0-2.1-.2-3-.7l-.5 2.5c1 .4 2.1.6 3.2.6 3 0 5-1.5 5-3.9 0-3-4.1-3.2-4.1-4.5 0-.4.4-.8 1.2-.9 1-.1 2 .1 2.9.5l.5-2.4c-.8-.3-1.7-.5-2.6-.5z"/>
  </defs>
  <clipPath id="b">
    <use xlink:href="#a" overflow="visible"/>
  </clipPath>
  <g clip-path="url(#b)">
    <linearGradient id="c" x1="-921" x2="-920" y1="598.118" y2="598.118" gradientTransform="matrix(25.04 -3.74 11.48 8.15 16201.337 -8311.538)" gradientUnits="userSpaceOnUse">
      <stop offset="0" stop-color="#222357"/>
      <stop offset="1" stop-color="#254aa5"/>
    </linearGradient>
    <path fill="url(#c)" d="m-13.6 2 43.3-6.4L49.5 9.7 6.2 16.1z"/>
  </g>
</svg>